<?xml version="1.0" standalone="no"?>
<svg xmlns="http://www.w3.org/2000/svg" width="500" height="500"><defs><clipPath id="clip-path-dot-color"><path d="M 29 155v 9h 4.5a 4.5 4.5, 0, 0, 0, 0 -9" transform="rotate(180,33.5,159.5)"/><path d="M 29 191v 9h 9v -4.5a 4.5 4.5, 0, 0, 0, -4.5 -4.5" transform="rotate(-90,33.5,195.5)"/><path d="M 29 200v 9h 9v -4.5a 4.5 4.5, 0, 0, 0, -4.5 -4.5" transform="rotate(180,33.5,204.5)"/><path d="M 29 227v 9h 4.5a 4.5 4.5, 0, 0, 0, 0 -9" transform="rotate(-90,33.5,231.5)"/><path d="M 29 236v 9h 9v -4.5a 4.5 4.5, 0, 0, 0, -4.5 -4.5" transform="rotate(180,33.5,240.5)"/><circle cx="33.5" cy="258.5" r="4.5" transform="rotate(0,33.5,258.5)"/><path d="M 29 290v 9h 9v -4.5a 4.5 4.5, 0, 0, 0, -4.5 -4.5" transform="rotate(-90,33.5,294.5)"/><rect x="29" y="299" width="9" height="9" transform="rotate(0,33.5,303.5)"/><rect x="29" y="308" width="9" height="9" transform="rotate(0,33.5,312.5)"/><path d="M 29 317v 9h 9v -4.5a 4.5 4.5, 0, 0, 0, -4.5 -4.5" transform="rotate(180,33.5,321.5)"/><circle cx="33.5" cy="348.5" r="4.5" transform="rotate(0,33.5,348.5)"/><circle cx="33.5" cy="366.5" r="4.5" transform="rotate(0,33.5,366.5)"/><path d="M 29 389v 9h 4.5a 4.5 4.5, 0, 0, 0, 0 -9" transform="rotate(180,33.5,393.5)"/><path d="M 38 101v 9h 9v -4.5a 4.5 4.5, 0, 0, 0, -4.5 -4.5" transform="rotate(-90,42.5,105.5)"/><rect x="38" y="110" width="9" height="9" transform="rotate(0,42.5,114.5)"/><rect x="38" y="119" width="9" height="9" transform="rotate(0,42.5,123.5)"/><path d="M 38 128v 9h 9v -4.5a 4.5 4.5, 0, 0, 0, -4.5 -4.5" transform="rotate(180,42.5,132.5)"/><path d="M 38 155v 9h 4.5a 4.5 4.5, 0, 0, 0, 0 -9" transform="rotate(0,42.5,159.5)"/><path d="M 38 191v 9h 9v -4.5a 4.5 4.5, 0, 0, 0, -4.5 -4.5" transform="rotate(0,42.5,195.5)"/><rect x="38" y="200" width="9" height="9" transform="rotate(0,42.5,204.5)"/><rect x="38" y="209" width="9" height="9" transform="rotate(0,42.5,213.5)"/><path d="M 38 218v 9h 9v -4.5a 4.5 4.5, 0, 0, 0, -4.5 -4.5" transform="rotate(180,42.5,222.5)"/><path d="M 38 236v 9h 4.5a 4.5 4.5, 0, 0, 0, 0 -9" transform="rotate(0,42.5,240.5)"/><path d="M 38 263v 9h 4.5a 4.5 4.5, 0, 0, 0, 0 -9" transform="rotate(180,42.5,267.5)"/><path d="M 38 281v 9h 9v -4.5a 4.5 4.5, 0, 0, 0, -4.5 -4.5" transform="rotate(-90,42.5,285.5)"/><rect x="38" y="290" width="9" height="9" transform="rotate(0,42.5,294.5)"/><rect x="38" y="299" width="9" height="9" transform="rotate(0,42.5,303.5)"/><rect x="38" y="308" width="9" height="9" transform="rotate(0,42.5,312.5)"/><rect x="38" y="317" width="9" height="9" transform="rotate(0,42.5,321.5)"/><path d="M 38 335v 9h 4.5a 4.5 4.5, 0, 0, 0, 0 -9" transform="rotate(180,42.5,339.5)"/><path d="M 38 353v 9h 4.5a 4.5 4.5, 0, 0, 0, 0 -9" transform="rotate(180,42.5,357.5)"/><path d="M 38 371v 9h 4.5a 4.5 4.5, 0, 0, 0, 0 -9" transform="rotate(-90,42.5,375.5)"/><rect x="38" y="380" width="9" height="9" transform="rotate(0,42.5,384.5)"/><rect x="38" y="389" width="9" height="9" transform="rotate(0,42.5,393.5)"/><path d="M 47 101v 9h 9v -4.5a 4.5 4.5, 0, 0, 0, -4.5 -4.5" transform="rotate(0,51.5,105.5)"/><path d="M 47 110v 9h 9v -4.5a 4.5 4.5, 0, 0, 0, -4.5 -4.5" transform="rotate(90,51.5,114.5)"/><rect x="47" y="128" width="9" height="9" transform="rotate(0,51.5,132.5)"/><path d="M 47 164v 9h 4.5a 4.5 4.5, 0, 0, 0, 0 -9" transform="rotate(180,51.5,168.5)"/><rect x="47" y="200" width="9" height="9" transform="rotate(0,51.5,204.5)"/><rect x="47" y="218" width="9" height="9" transform="rotate(0,51.5,222.5)"/><path d="M 47 227v 9h 9v -4.5a 4.5 4.5, 0, 0, 0, -4.5 -4.5" transform="rotate(180,51.5,231.5)"/><path d="M 47 245v 9h 4.5a 4.5 4.5, 0, 0, 0, 0 -9" transform="rotate(-90,51.5,249.5)"/><rect x="47" y="254" width="9" height="9" transform="rotate(0,51.5,258.5)"/><path d="M 47 263v 9h 9v -4.5a 4.5 4.5, 0, 0, 0, -4.5 -4.5" transform="rotate(90,51.5,267.5)"/><path d="M 47 281v 9h 4.5a 4.5 4.5, 0, 0, 0, 0 -9" transform="rotate(0,51.5,285.5)"/><rect x="47" y="308" width="9" height="9" transform="rotate(0,51.5,312.5)"/><rect x="47" y="317" width="9" height="9" transform="rotate(0,51.5,321.5)"/><rect x="47" y="326" width="9" height="9" transform="rotate(0,51.5,330.5)"/><rect x="47" y="335" width="9" height="9" transform="rotate(0,51.5,339.5)"/><rect x="47" y="344" width="9" height="9" transform="rotate(0,51.5,348.5)"/><rect x="47" y="353" width="9" height="9" transform="rotate(0,51.5,357.5)"/><path d="M 47 362v 9h 4.5a 4.5 4.5, 0, 0, 0, 0 -9" transform="rotate(90,51.5,366.5)"/><rect x="47" y="380" width="9" height="9" transform="rotate(0,51.5,384.5)"/><path d="M 47 389v 9h 9v -4.5a 4.5 4.5, 0, 0, 0, -4.5 -4.5" transform="rotate(90,51.5,393.5)"/><path d="M 56 119v 9h 9v -4.5a 4.5 4.5, 0, 0, 0, -4.5 -4.5" transform="rotate(-90,60.5,123.5)"/><path d="M 56 128v 9h 9v -4.5a 4.5 4.5, 0, 0, 0, -4.5 -4.5" transform="rotate(90,60.5,132.5)"/><path d="M 56 155v 9h 9v -4.5a 4.5 4.5, 0, 0, 0, -4.5 -4.5" transform="rotate(-90,60.5,159.5)"/><rect x="56" y="164" width="9" height="9" transform="rotate(0,60.5,168.5)"/><path d="M 56 173v 9h 4.5a 4.5 4.5, 0, 0, 0, 0 -9" transform="rotate(90,60.5,177.5)"/><path d="M 56 200v 9h 4.5a 4.5 4.5, 0, 0, 0, 0 -9" transform="rotate(0,60.5,204.5)"/><path d="M 56 218v 9h 9v -4.5a 4.5 4.5, 0, 0, 0, -4.5 -4.5" transform="rotate(0,60.5,222.5)"/><rect x="56" y="227" width="9" height="9" transform="rotate(0,60.5,231.5)"/><path d="M 56 272v 9h 4.5a 4.5 4.5, 0, 0, 0, 0 -9" transform="rotate(180,60.5,276.5)"/><path d="M 56 290v 9h 4.5a 4.5 4.5, 0, 0, 0, 0 -9" transform="rotate(-90,60.5,294.5)"/><rect x="56" y="299" width="9" height="9" transform="rotate(0,60.5,303.5)"/><rect x="56" y="308" width="9" height="9" transform="rotate(0,60.5,312.5)"/><rect x="56" y="326" width="9" height="9" transform="rotate(0,60.5,330.5)"/><path d="M 56 344v 9h 9v -4.5a 4.5 4.5, 0, 0, 0, -4.5 -4.5" transform="rotate(0,60.5,348.5)"/><path d="M 56 353v 9h 9v -4.5a 4.5 4.5, 0, 0, 0, -4.5 -4.5" transform="rotate(90,60.5,357.5)"/><path d="M 56 380v 9h 4.5a 4.5 4.5, 0, 0, 0, 0 -9" transform="rotate(0,60.5,384.5)"/><path d="M 65 110v 9h 9v -4.5a 4.5 4.5, 0, 0, 0, -4.5 -4.5" transform="rotate(-90,69.5,114.5)"/><rect x="65" y="119" width="9" height="9" transform="rotate(0,69.5,123.5)"/><path d="M 65 137v 9h 4.5a 4.5 4.5, 0, 0, 0, 0 -9" transform="rotate(180,69.5,141.5)"/><rect x="65" y="155" width="9" height="9" transform="rotate(0,69.5,159.5)"/><rect x="65" y="164" width="9" height="9" transform="rotate(0,69.5,168.5)"/><circle cx="69.5" cy="186.5" r="4.5" transform="rotate(0,69.5,186.5)"/><circle cx="69.5" cy="213.5" r="4.5" transform="rotate(0,69.5,213.5)"/><rect x="65" y="227" width="9" height="9" transform="rotate(0,69.5,231.5)"/><rect x="65" y="236" width="9" height="9" transform="rotate(0,69.5,240.5)"/><rect x="65" y="245" width="9" height="9" transform="rotate(0,69.5,249.5)"/><rect x="65" y="254" width="9" height="9" transform="rotate(0,69.5,258.5)"/><rect x="65" y="263" width="9" height="9" transform="rotate(0,69.5,267.5)"/><rect x="65" y="272" width="9" height="9" transform="rotate(0,69.5,276.5)"/><path d="M 65 308v 9h 4.5a 4.5 4.5, 0, 0, 0, 0 -9" transform="rotate(0,69.5,312.5)"/><path d="M 65 326v 9h 4.5a 4.5 4.5, 0, 0, 0, 0 -9" transform="rotate(0,69.5,330.5)"/><path d="M 65 362v 9h 4.5a 4.5 4.5, 0, 0, 0, 0 -9" transform="rotate(180,69.5,366.5)"/><path d="M 74 110v 9h 9v -4.5a 4.5 4.5, 0, 0, 0, -4.5 -4.5" transform="rotate(0,78.5,114.5)"/><rect x="74" y="119" width="9" height="9" transform="rotate(0,78.5,123.5)"/><rect x="74" y="128" width="9" height="9" transform="rotate(0,78.5,132.5)"/><rect x="74" y="137" width="9" height="9" transform="rotate(0,78.5,141.5)"/><rect x="74" y="146" width="9" height="9" transform="rotate(0,78.5,150.5)"/><rect x="74" y="155" width="9" height="9" transform="rotate(0,78.5,159.5)"/><rect x="74" y="164" width="9" height="9" transform="rotate(0,78.5,168.5)"/><path d="M 74 173v 9h 9v -4.5a 4.5 4.5, 0, 0, 0, -4.5 -4.5" transform="rotate(180,78.5,177.5)"/><path d="M 74 191v 9h 4.5a 4.5 4.5, 0, 0, 0, 0 -9" transform="rotate(180,78.5,195.5)"/><path d="M 74 218v 9h 4.5a 4.5 4.5, 0, 0, 0, 0 -9" transform="rotate(-90,78.5,222.5)"/><rect x="74" y="227" width="9" height="9" transform="rotate(0,78.5,231.5)"/><rect x="74" y="263" width="9" height="9" transform="rotate(0,78.5,267.5)"/><rect x="74" y="272" width="9" height="9" transform="rotate(0,78.5,276.5)"/><path d="M 74 281v 9h 9v -4.5a 4.5 4.5, 0, 0, 0, -4.5 -4.5" transform="rotate(180,78.5,285.5)"/><path d="M 74 299v 9h 4.5a 4.5 4.5, 0, 0, 0, 0 -9" transform="rotate(180,78.5,303.5)"/><path d="M 74 317v 9h 4.5a 4.5 4.5, 0, 0, 0, 0 -9" transform="rotate(180,78.5,321.5)"/><circle cx="78.5" cy="348.5" r="4.5" transform="rotate(0,78.5,348.5)"/><path d="M 74 362v 9h 9v -4.5a 4.5 4.5, 0, 0, 0, -4.5 -4.5" transform="rotate(0,78.5,366.5)"/><path d="M 74 371v 9h 9v -4.5a 4.5 4.5, 0, 0, 0, -4.5 -4.5" transform="rotate(180,78.5,375.5)"/><circle cx="87.5" cy="105.5" r="4.5" transform="rotate(0,87.5,105.5)"/><rect x="83" y="119" width="9" height="9" transform="rotate(0,87.5,123.5)"/><rect x="83" y="137" width="9" height="9" transform="rotate(0,87.5,141.5)"/><path d="M 83 155v 9h 4.5a 4.5 4.5, 0, 0, 0, 0 -9" transform="rotate(0,87.5,159.5)"/><rect x="83" y="173" width="9" height="9" transform="rotate(0,87.5,177.5)"/><path d="M 83 191v 9h 4.5a 4.5 4.5, 0, 0, 0, 0 -9" transform="rotate(0,87.5,195.5)"/><path d="M 83 209v 9h 4.5a 4.5 4.5, 0, 0, 0, 0 -9" transform="rotate(180,87.5,213.5)"/><rect x="83" y="227" width="9" height="9" transform="rotate(0,87.5,231.5)"/><circle cx="87.5" cy="249.5" r="4.5" transform="rotate(0,87.5,249.5)"/><rect x="83" y="263" width="9" height="9" transform="rotate(0,87.5,267.5)"/><rect x="83" y="281" width="9" height="9" transform="rotate(0,87.5,285.5)"/><path d="M 83 299v 9h 4.5a 4.5 4.5, 0, 0, 0, 0 -9" transform="rotate(0,87.5,303.5)"/><rect x="83" y="317" width="9" height="9" transform="rotate(0,87.5,321.5)"/><circle cx="87.5" cy="339.5" r="4.5" transform="rotate(0,87.5,339.5)"/><circle cx="87.5" cy="357.5" r="4.5" transform="rotate(0,87.5,357.5)"/><rect x="83" y="371" width="9" height="9" transform="rotate(0,87.5,375.5)"/><circle cx="87.5" cy="393.5" r="4.5" transform="rotate(0,87.5,393.5)"/><rect x="92" y="119" width="9" height="9" transform="rotate(0,96.5,123.5)"/><rect x="92" y="137" width="9" height="9" transform="rotate(0,96.5,141.5)"/><path d="M 92 146v 9h 9v -4.5a 4.5 4.5, 0, 0, 0, -4.5 -4.5" transform="rotate(180,96.5,150.5)"/><path d="M 92 173v 9h 9v -4.5a 4.5 4.5, 0, 0, 0, -4.5 -4.5" transform="rotate(0,96.5,177.5)"/><path d="M 92 182v 9h 9v -4.5a 4.5 4.5, 0, 0, 0, -4.5 -4.5" transform="rotate(180,96.5,186.5)"/><rect x="92" y="209" width="9" height="9" transform="rotate(0,96.5,213.5)"/><rect x="92" y="218" width="9" height="9" transform="rotate(0,96.5,222.5)"/><rect x="92" y="227" width="9" height="9" transform="rotate(0,96.5,231.5)"/><rect x="92" y="263" width="9" height="9" transform="rotate(0,96.5,267.5)"/><rect x="92" y="281" width="9" height="9" transform="rotate(0,96.5,285.5)"/><path d="M 92 290v 9h 4.5a 4.5 4.5, 0, 0, 0, 0 -9" transform="rotate(90,96.5,294.5)"/><path d="M 92 308v 9h 9v -4.5a 4.5 4.5, 0, 0, 0, -4.5 -4.5" transform="rotate(-90,96.5,312.5)"/><path d="M 92 317v 9h 9v -4.5a 4.5 4.5, 0, 0, 0, -4.5 -4.5" transform="rotate(90,96.5,321.5)"/><rect x="92" y="371" width="9" height="9" transform="rotate(0,96.5,375.5)"/><path d="M 101 38v 9h 4.5a 4.5 4.5, 0, 0, 0, 0 -9" transform="rotate(-90,105.5,42.5)"/><rect x="101" y="47" width="9" height="9" transform="rotate(0,105.5,51.5)"/><path d="M 101 56v 9h 4.5a 4.5 4.5, 0, 0, 0, 0 -9" transform="rotate(90,105.5,60.5)"/><path d="M 101 74v 9h 9v -4.5a 4.5 4.5, 0, 0, 0, -4.5 -4.5" transform="rotate(-90,105.5,78.5)"/><path d="M 101 83v 9h 4.5a 4.5 4.5, 0, 0, 0, 0 -9" transform="rotate(90,105.5,87.5)"/><path d="M 101 119v 9h 9v -4.5a 4.5 4.5, 0, 0, 0, -4.5 -4.5" transform="rotate(0,105.5,123.5)"/><rect x="101" y="128" width="9" height="9" transform="rotate(0,105.5,132.5)"/><rect x="101" y="137" width="9" height="9" transform="rotate(0,105.5,141.5)"/><rect x="101" y="146" width="9" height="9" transform="rotate(0,105.5,150.5)"/><rect x="101" y="155" width="9" height="9" transform="rotate(0,105.5,159.5)"/><path d="M 101 164v 9h 9v -4.5a 4.5 4.5, 0, 0, 0, -4.5 -4.5" transform="rotate(180,105.5,168.5)"/><rect x="101" y="182" width="9" height="9" transform="rotate(0,105.5,186.5)"/><rect x="101" y="209" width="9" height="9" transform="rotate(0,105.5,213.5)"/><rect x="101" y="218" width="9" height="9" transform="rotate(0,105.5,222.5)"/><rect x="101" y="227" width="9" height="9" transform="rotate(0,105.5,231.5)"/><rect x="101" y="236" width="9" height="9" transform="rotate(0,105.5,240.5)"/><rect x="101" y="245" width="9" height="9" transform="rotate(0,105.5,249.5)"/><rect x="101" y="254" width="9" height="9" transform="rotate(0,105.5,258.5)"/><rect x="101" y="263" width="9" height="9" transform="rotate(0,105.5,267.5)"/><rect x="101" y="281" width="9" height="9" transform="rotate(0,105.5,285.5)"/><path d="M 101 299v 9h 9v -4.5a 4.5 4.5, 0, 0, 0, -4.5 -4.5" transform="rotate(-90,105.5,303.5)"/><rect x="101" y="308" width="9" height="9" transform="rotate(0,105.5,312.5)"/><circle cx="105.5" cy="339.5" r="4.5" transform="rotate(0,105.5,339.5)"/><path d="M 101 371v 9h 9v -4.5a 4.5 4.5, 0, 0, 0, -4.5 -4.5" transform="rotate(0,105.5,375.5)"/><path d="M 101 380v 9h 9v -4.5a 4.5 4.5, 0, 0, 0, -4.5 -4.5" transform="rotate(180,105.5,384.5)"/><path d="M 101 443v 9h 4.5a 4.5 4.5, 0, 0, 0, 0 -9" transform="rotate(-90,105.5,447.5)"/><path d="M 101 452v 9h 4.5a 4.5 4.5, 0, 0, 0, 0 -9" transform="rotate(90,105.5,456.5)"/><path d="M 110 47v 9h 4.5a 4.5 4.5, 0, 0, 0, 0 -9" transform="rotate(0,114.5,51.5)"/><path d="M 110 65v 9h 4.5a 4.5 4.5, 0, 0, 0, 0 -9" transform="rotate(-90,114.5,69.5)"/><path d="M 110 74v 9h 9v -4.5a 4.5 4.5, 0, 0, 0, -4.5 -4.5" transform="rotate(90,114.5,78.5)"/><path d="M 110 137v 9h 9v -4.5a 4.5 4.5, 0, 0, 0, -4.5 -4.5" transform="rotate(0,114.5,141.5)"/><rect x="110" y="146" width="9" height="9" transform="rotate(0,114.5,150.5)"/><rect x="110" y="164" width="9" height="9" transform="rotate(0,114.5,168.5)"/><rect x="110" y="182" width="9" height="9" transform="rotate(0,114.5,186.5)"/><rect x="110" y="191" width="9" height="9" transform="rotate(0,114.5,195.5)"/><rect x="110" y="200" width="9" height="9" transform="rotate(0,114.5,204.5)"/><path d="M 110 209v 9h 9v -4.5a 4.5 4.5, 0, 0, 0, -4.5 -4.5" transform="rotate(90,114.5,213.5)"/><path d="M 110 245v 9h 4.5a 4.5 4.5, 0, 0, 0, 0 -9" transform="rotate(0,114.5,249.5)"/><rect x="110" y="263" width="9" height="9" transform="rotate(0,114.5,267.5)"/><rect x="110" y="281" width="9" height="9" transform="rotate(0,114.5,285.5)"/><rect x="110" y="290" width="9" height="9" transform="rotate(0,114.5,294.5)"/><rect x="110" y="299" width="9" height="9" transform="rotate(0,114.5,303.5)"/><path d="M 110 308v 9h 9v -4.5a 4.5 4.5, 0, 0, 0, -4.5 -4.5" transform="rotate(90,114.5,312.5)"/><path d="M 110 344v 9h 9v -4.5a 4.5 4.5, 0, 0, 0, -4.5 -4.5" transform="rotate(-90,114.5,348.5)"/><rect x="110" y="353" width="9" height="9" transform="rotate(0,114.5,357.5)"/><path d="M 110 362v 9h 4.5a 4.5 4.5, 0, 0, 0, 0 -9" transform="rotate(90,114.5,366.5)"/><path d="M 110 380v 9h 4.5a 4.5 4.5, 0, 0, 0, 0 -9" transform="rotate(0,114.5,384.5)"/><path d="M 110 398v 9h 4.5a 4.5 4.5, 0, 0, 0, 0 -9" transform="rotate(-90,114.5,402.5)"/><rect x="110" y="407" width="9" height="9" transform="rotate(0,114.5,411.5)"/><rect x="110" y="416" width="9" height="9" transform="rotate(0,114.5,420.5)"/><path d="M 110 425v 9h 9v -4.5a 4.5 4.5, 0, 0, 0, -4.5 -4.5" transform="rotate(180,114.5,429.5)"/><path d="M 119 29v 9h 4.5a 4.5 4.5, 0, 0, 0, 0 -9" transform="rotate(-90,123.5,33.5)"/><path d="M 119 38v 9h 9v -4.5a 4.5 4.5, 0, 0, 0, -4.5 -4.5" transform="rotate(180,123.5,42.5)"/><circle cx="123.5" cy="60.5" r="4.5" transform="rotate(0,123.5,60.5)"/><circle cx="123.5" cy="87.5" r="4.5" transform="rotate(0,123.5,87.5)"/><path d="M 119 101v 9h 4.5a 4.5 4.5, 0, 0, 0, 0 -9" transform="rotate(180,123.5,105.5)"/><path d="M 119 119v 9h 4.5a 4.5 4.5, 0, 0, 0, 0 -9" transform="rotate(-90,123.5,123.5)"/><path d="M 119 128v 9h 4.5a 4.5 4.5, 0, 0, 0, 0 -9" transform="rotate(90,123.5,132.5)"/><path d="M 119 146v 9h 4.5a 4.5 4.5, 0, 0, 0, 0 -9" transform="rotate(0,123.5,150.5)"/><rect x="119" y="164" width="9" height="9" transform="rotate(0,123.5,168.5)"/><rect x="119" y="173" width="9" height="9" transform="rotate(0,123.5,177.5)"/><rect x="119" y="182" width="9" height="9" transform="rotate(0,123.5,186.5)"/><path d="M 119 191v 9h 9v -4.5a 4.5 4.5, 0, 0, 0, -4.5 -4.5" transform="rotate(90,123.5,195.5)"/><path d="M 119 218v 9h 9v -4.5a 4.5 4.5, 0, 0, 0, -4.5 -4.5" transform="rotate(-90,123.5,222.5)"/><rect x="119" y="227" width="9" height="9" transform="rotate(0,123.5,231.5)"/><path d="M 119 236v 9h 4.5a 4.5 4.5, 0, 0, 0, 0 -9" transform="rotate(90,123.5,240.5)"/><rect x="119" y="263" width="9" height="9" transform="rotate(0,123.5,267.5)"/><rect x="119" y="272" width="9" height="9" transform="rotate(0,123.5,276.5)"/><rect x="119" y="281" width="9" height="9" transform="rotate(0,123.5,285.5)"/><rect x="119" y="290" width="9" height="9" transform="rotate(0,123.5,294.5)"/><path d="M 119 299v 9h 9v -4.5a 4.5 4.5, 0, 0, 0, -4.5 -4.5" transform="rotate(90,123.5,303.5)"/><path d="M 119 317v 9h 9v -4.5a 4.5 4.5, 0, 0, 0, -4.5 -4.5" transform="rotate(-90,123.5,321.5)"/><rect x="119" y="326" width="9" height="9" transform="rotate(0,123.5,330.5)"/><rect x="119" y="335" width="9" height="9" transform="rotate(0,123.5,339.5)"/><path d="M 119 344v 9h 9v -4.5a 4.5 4.5, 0, 0, 0, -4.5 -4.5" transform="rotate(90,123.5,348.5)"/><path d="M 119 389v 9h 4.5a 4.5 4.5, 0, 0, 0, 0 -9" transform="rotate(180,123.5,393.5)"/><rect x="119" y="407" width="9" height="9" transform="rotate(0,123.5,411.5)"/><rect x="119" y="425" width="9" height="9" transform="rotate(0,123.5,429.5)"/><path d="M 119 434v 9h 4.5a 4.5 4.5, 0, 0, 0, 0 -9" transform="rotate(90,123.5,438.5)"/><rect x="128" y="38" width="9" height="9" transform="rotate(0,132.5,42.5)"/><path d="M 128 47v 9h 9v -4.5a 4.5 4.5, 0, 0, 0, -4.5 -4.5" transform="rotate(180,132.5,51.5)"/><path d="M 128 74v 9h 4.5a 4.5 4.5, 0, 0, 0, 0 -9" transform="rotate(180,132.5,78.5)"/><rect x="128" y="101" width="9" height="9" transform="rotate(0,132.5,105.5)"/><path d="M 128 110v 9h 9v -4.5a 4.5 4.5, 0, 0, 0, -4.5 -4.5" transform="rotate(180,132.5,114.5)"/><circle cx="132.5" cy="141.5" r="4.5" transform="rotate(0,132.5,141.5)"/><path d="M 128 155v 9h 4.5a 4.5 4.5, 0, 0, 0, 0 -9" transform="rotate(-90,132.5,159.5)"/><rect x="128" y="164" width="9" height="9" transform="rotate(0,132.5,168.5)"/><rect x="128" y="182" width="9" height="9" transform="rotate(0,132.5,186.5)"/><path d="M 128 209v 9h 9v -4.5a 4.5 4.5, 0, 0, 0, -4.5 -4.5" transform="rotate(-90,132.5,213.5)"/><rect x="128" y="218" width="9" height="9" transform="rotate(0,132.5,222.5)"/><path d="M 128 245v 9h 4.5a 4.5 4.5, 0, 0, 0, 0 -9" transform="rotate(180,132.5,249.5)"/><rect x="128" y="263" width="9" height="9" transform="rotate(0,132.5,267.5)"/><rect x="128" y="272" width="9" height="9" transform="rotate(0,132.5,276.5)"/><path d="M 128 308v 9h 9v -4.5a 4.5 4.5, 0, 0, 0, -4.5 -4.5" transform="rotate(-90,132.5,312.5)"/><rect x="128" y="317" width="9" height="9" transform="rotate(0,132.5,321.5)"/><path d="M 128 326v 9h 9v -4.5a 4.5 4.5, 0, 0, 0, -4.5 -4.5" transform="rotate(90,132.5,330.5)"/><path d="M 128 353v 9h 9v -4.5a 4.5 4.5, 0, 0, 0, -4.5 -4.5" transform="rotate(-90,132.5,357.5)"/><path d="M 128 362v 9h 9v -4.5a 4.5 4.5, 0, 0, 0, -4.5 -4.5" transform="rotate(180,132.5,366.5)"/><path d="M 128 380v 9h 9v -4.5a 4.5 4.5, 0, 0, 0, -4.5 -4.5" transform="rotate(-90,132.5,384.5)"/><rect x="128" y="389" width="9" height="9" transform="rotate(0,132.5,393.5)"/><rect x="128" y="398" width="9" height="9" transform="rotate(0,132.5,402.5)"/><rect x="128" y="407" width="9" height="9" transform="rotate(0,132.5,411.5)"/><rect x="128" y="416" width="9" height="9" transform="rotate(0,132.5,420.5)"/><path d="M 128 425v 9h 9v -4.5a 4.5 4.5, 0, 0, 0, -4.5 -4.5" transform="rotate(90,132.5,429.5)"/><path d="M 128 443v 9h 9v -4.5a 4.5 4.5, 0, 0, 0, -4.5 -4.5" transform="rotate(-90,132.5,447.5)"/><rect x="128" y="452" width="9" height="9" transform="rotate(0,132.5,456.5)"/><path d="M 128 461v 9h 4.5a 4.5 4.5, 0, 0, 0, 0 -9" transform="rotate(90,132.5,465.5)"/><path d="M 137 29v 9h 4.5a 4.5 4.5, 0, 0, 0, 0 -9" transform="rotate(-90,141.5,33.5)"/><rect x="137" y="38" width="9" height="9" transform="rotate(0,141.5,42.5)"/><rect x="137" y="47" width="9" height="9" transform="rotate(0,141.5,51.5)"/><rect x="137" y="56" width="9" height="9" transform="rotate(0,141.5,60.5)"/><rect x="137" y="65" width="9" height="9" transform="rotate(0,141.5,69.5)"/><rect x="137" y="74" width="9" height="9" transform="rotate(0,141.5,78.5)"/><path d="M 137 83v 9h 4.5a 4.5 4.5, 0, 0, 0, 0 -9" transform="rotate(90,141.5,87.5)"/><rect x="137" y="101" width="9" height="9" transform="rotate(0,141.5,105.5)"/><path d="M 137 110v 9h 9v -4.5a 4.5 4.5, 0, 0, 0, -4.5 -4.5" transform="rotate(90,141.5,114.5)"/><circle cx="141.5" cy="132.5" r="4.5" transform="rotate(0,141.5,132.5)"/><circle cx="141.5" cy="150.5" r="4.5" transform="rotate(0,141.5,150.5)"/><path d="M 137 164v 9h 9v -4.5a 4.5 4.5, 0, 0, 0, -4.5 -4.5" transform="rotate(0,141.5,168.5)"/><rect x="137" y="173" width="9" height="9" transform="rotate(0,141.5,177.5)"/><rect x="137" y="182" width="9" height="9" transform="rotate(0,141.5,186.5)"/><rect x="137" y="191" width="9" height="9" transform="rotate(0,141.5,195.5)"/><rect x="137" y="200" width="9" height="9" transform="rotate(0,141.5,204.5)"/><rect x="137" y="209" width="9" height="9" transform="rotate(0,141.5,213.5)"/><path d="M 137 218v 9h 9v -4.5a 4.5 4.5, 0, 0, 0, -4.5 -4.5" transform="rotate(90,141.5,222.5)"/><path d="M 137 236v 9h 9v -4.5a 4.5 4.5, 0, 0, 0, -4.5 -4.5" transform="rotate(-90,141.5,240.5)"/><rect x="137" y="245" width="9" height="9" transform="rotate(0,141.5,249.5)"/><rect x="137" y="254" width="9" height="9" transform="rotate(0,141.5,258.5)"/><rect x="137" y="263" width="9" height="9" transform="rotate(0,141.5,267.5)"/><rect x="137" y="272" width="9" height="9" transform="rotate(0,141.5,276.5)"/><circle cx="141.5" cy="294.5" r="4.5" transform="rotate(0,141.5,294.5)"/><path d="M 137 308v 9h 4.5a 4.5 4.5, 0, 0, 0, 0 -9" transform="rotate(0,141.5,312.5)"/><path d="M 137 335v 9h 4.5a 4.5 4.5, 0, 0, 0, 0 -9" transform="rotate(-90,141.5,339.5)"/><rect x="137" y="344" width="9" height="9" transform="rotate(0,141.5,348.5)"/><rect x="137" y="353" width="9" height="9" transform="rotate(0,141.5,357.5)"/><rect x="137" y="362" width="9" height="9" transform="rotate(0,141.5,366.5)"/><rect x="137" y="371" width="9" height="9" transform="rotate(0,141.5,375.5)"/><rect x="137" y="380" width="9" height="9" transform="rotate(0,141.5,384.5)"/><path d="M 137 389v 9h 9v -4.5a 4.5 4.5, 0, 0, 0, -4.5 -4.5" transform="rotate(90,141.5,393.5)"/><path d="M 137 416v 9h 4.5a 4.5 4.5, 0, 0, 0, 0 -9" transform="rotate(0,141.5,420.5)"/><path d="M 137 434v 9h 9v -4.5a 4.5 4.5, 0, 0, 0, -4.5 -4.5" transform="rotate(-90,141.5,438.5)"/><rect x="137" y="443" width="9" height="9" transform="rotate(0,141.5,447.5)"/><rect x="146" y="47" width="9" height="9" transform="rotate(0,150.5,51.5)"/><path d="M 146 56v 9h 9v -4.5a 4.5 4.5, 0, 0, 0, -4.5 -4.5" transform="rotate(90,150.5,60.5)"/><path d="M 146 92v 9h 4.5a 4.5 4.5, 0, 0, 0, 0 -9" transform="rotate(-90,150.5,96.5)"/><path d="M 146 101v 9h 9v -4.5a 4.5 4.5, 0, 0, 0, -4.5 -4.5" transform="rotate(90,150.5,105.5)"/><circle cx="150.5" cy="123.5" r="4.5" transform="rotate(0,150.5,123.5)"/><path d="M 146 137v 9h 4.5a 4.5 4.5, 0, 0, 0, 0 -9" transform="rotate(180,150.5,141.5)"/><circle cx="150.5" cy="159.5" r="4.5" transform="rotate(0,150.5,159.5)"/><rect x="146" y="191" width="9" height="9" transform="rotate(0,150.5,195.5)"/><rect x="146" y="200" width="9" height="9" transform="rotate(0,150.5,204.5)"/><rect x="146" y="209" width="9" height="9" transform="rotate(0,150.5,213.5)"/><rect x="146" y="236" width="9" height="9" transform="rotate(0,150.5,240.5)"/><rect x="146" y="254" width="9" height="9" transform="rotate(0,150.5,258.5)"/><rect x="146" y="263" width="9" height="9" transform="rotate(0,150.5,267.5)"/><rect x="146" y="272" width="9" height="9" transform="rotate(0,150.5,276.5)"/><circle cx="150.5" cy="330.5" r="4.5" transform="rotate(0,150.5,330.5)"/><path d="M 146 353v 9h 9v -4.5a 4.5 4.5, 0, 0, 0, -4.5 -4.5" transform="rotate(0,150.5,357.5)"/><rect x="146" y="362" width="9" height="9" transform="rotate(0,150.5,366.5)"/><rect x="146" y="371" width="9" height="9" transform="rotate(0,150.5,375.5)"/><rect x="146" y="434" width="9" height="9" transform="rotate(0,150.5,438.5)"/><rect x="146" y="443" width="9" height="9" transform="rotate(0,150.5,447.5)"/><rect x="146" y="452" width="9" height="9" transform="rotate(0,150.5,456.5)"/><path d="M 146 461v 9h 4.5a 4.5 4.5, 0, 0, 0, 0 -9" transform="rotate(90,150.5,465.5)"/><path d="M 155 29v 9h 4.5a 4.5 4.5, 0, 0, 0, 0 -9" transform="rotate(180,159.5,33.5)"/><rect x="155" y="47" width="9" height="9" transform="rotate(0,159.5,51.5)"/><path d="M 155 74v 9h 9v -4.5a 4.5 4.5, 0, 0, 0, -4.5 -4.5" transform="rotate(-90,159.5,78.5)"/><path d="M 155 83v 9h 4.5a 4.5 4.5, 0, 0, 0, 0 -9" transform="rotate(90,159.5,87.5)"/><path d="M 155 128v 9h 4.5a 4.5 4.5, 0, 0, 0, 0 -9" transform="rotate(-90,159.5,132.5)"/><rect x="155" y="137" width="9" height="9" transform="rotate(0,159.5,141.5)"/><path d="M 155 146v 9h 9v -4.5a 4.5 4.5, 0, 0, 0, -4.5 -4.5" transform="rotate(180,159.5,150.5)"/><path d="M 155 173v 9h 4.5a 4.5 4.5, 0, 0, 0, 0 -9" transform="rotate(180,159.5,177.5)"/><rect x="155" y="191" width="9" height="9" transform="rotate(0,159.5,195.5)"/><rect x="155" y="200" width="9" height="9" transform="rotate(0,159.5,204.5)"/><rect x="155" y="209" width="9" height="9" transform="rotate(0,159.5,213.5)"/><path d="M 155 218v 9h 4.5a 4.5 4.5, 0, 0, 0, 0 -9" transform="rotate(90,159.5,222.5)"/><rect x="155" y="236" width="9" height="9" transform="rotate(0,159.5,240.5)"/><path d="M 155 254v 9h 4.5a 4.5 4.5, 0, 0, 0, 0 -9" transform="rotate(0,159.5,258.5)"/><rect x="155" y="272" width="9" height="9" transform="rotate(0,159.5,276.5)"/><circle cx="159.5" cy="303.5" r="4.5" transform="rotate(0,159.5,303.5)"/><path d="M 155 317v 9h 4.5a 4.5 4.5, 0, 0, 0, 0 -9" transform="rotate(180,159.5,321.5)"/><path d="M 155 371v 9h 4.5a 4.5 4.5, 0, 0, 0, 0 -9" transform="rotate(0,159.5,375.5)"/><circle cx="159.5" cy="411.5" r="4.5" transform="rotate(0,159.5,411.5)"/><path d="M 155 425v 9h 9v -4.5a 4.5 4.5, 0, 0, 0, -4.5 -4.5" transform="rotate(-90,159.5,429.5)"/><path d="M 155 434v 9h 9v -4.5a 4.5 4.5, 0, 0, 0, -4.5 -4.5" transform="rotate(90,159.5,438.5)"/><rect x="155" y="452" width="9" height="9" transform="rotate(0,159.5,456.5)"/><rect x="164" y="29" width="9" height="9" transform="rotate(0,168.5,33.5)"/><rect x="164" y="47" width="9" height="9" transform="rotate(0,168.5,51.5)"/><path d="M 164 74v 9h 4.5a 4.5 4.5, 0, 0, 0, 0 -9" transform="rotate(0,168.5,78.5)"/><path d="M 164 101v 9h 4.5a 4.5 4.5, 0, 0, 0, 0 -9" transform="rotate(180,168.5,105.5)"/><path d="M 164 137v 9h 9v -4.5a 4.5 4.5, 0, 0, 0, -4.5 -4.5" transform="rotate(0,168.5,141.5)"/><rect x="164" y="146" width="9" height="9" transform="rotate(0,168.5,150.5)"/><rect x="164" y="173" width="9" height="9" transform="rotate(0,168.5,177.5)"/><rect x="164" y="182" width="9" height="9" transform="rotate(0,168.5,186.5)"/><path d="M 164 191v 9h 9v -4.5a 4.5 4.5, 0, 0, 0, -4.5 -4.5" transform="rotate(90,168.5,195.5)"/><path d="M 164 209v 9h 4.5a 4.5 4.5, 0, 0, 0, 0 -9" transform="rotate(0,168.5,213.5)"/><path d="M 164 227v 9h 4.5a 4.5 4.5, 0, 0, 0, 0 -9" transform="rotate(-90,168.5,231.5)"/><rect x="164" y="236" width="9" height="9" transform="rotate(0,168.5,240.5)"/><path d="M 164 245v 9h 9v -4.5a 4.5 4.5, 0, 0, 0, -4.5 -4.5" transform="rotate(180,168.5,249.5)"/><path d="M 164 263v 9h 9v -4.5a 4.5 4.5, 0, 0, 0, -4.5 -4.5" transform="rotate(-90,168.5,267.5)"/><rect x="164" y="272" width="9" height="9" transform="rotate(0,168.5,276.5)"/><rect x="164" y="281" width="9" height="9" transform="rotate(0,168.5,285.5)"/><path d="M 164 290v 9h 9v -4.5a 4.5 4.5, 0, 0, 0, -4.5 -4.5" transform="rotate(180,168.5,294.5)"/><path d="M 164 308v 9h 9v -4.5a 4.5 4.5, 0, 0, 0, -4.5 -4.5" transform="rotate(-90,168.5,312.5)"/><rect x="164" y="317" width="9" height="9" transform="rotate(0,168.5,321.5)"/><path d="M 164 335v 9h 9v -4.5a 4.5 4.5, 0, 0, 0, -4.5 -4.5" transform="rotate(-90,168.5,339.5)"/><path d="M 164 344v 9h 4.5a 4.5 4.5, 0, 0, 0, 0 -9" transform="rotate(90,168.5,348.5)"/><path d="M 164 380v 9h 9v -4.5a 4.5 4.5, 0, 0, 0, -4.5 -4.5" transform="rotate(-90,168.5,384.5)"/><path d="M 164 389v 9h 9v -4.5a 4.5 4.5, 0, 0, 0, -4.5 -4.5" transform="rotate(180,168.5,393.5)"/><rect x="164" y="425" width="9" height="9" transform="rotate(0,168.5,429.5)"/><rect x="164" y="452" width="9" height="9" transform="rotate(0,168.5,456.5)"/><path d="M 164 461v 9h 4.5a 4.5 4.5, 0, 0, 0, 0 -9" transform="rotate(90,168.5,465.5)"/><rect x="173" y="29" width="9" height="9" transform="rotate(0,177.5,33.5)"/><rect x="173" y="47" width="9" height="9" transform="rotate(0,177.5,51.5)"/><path d="M 173 56v 9h 9v -4.5a 4.5 4.5, 0, 0, 0, -4.5 -4.5" transform="rotate(180,177.5,60.5)"/><path d="M 173 83v 9h 4.5a 4.5 4.5, 0, 0, 0, 0 -9" transform="rotate(-90,177.5,87.5)"/><rect x="173" y="92" width="9" height="9" transform="rotate(0,177.5,96.5)"/><rect x="173" y="101" width="9" height="9" transform="rotate(0,177.5,105.5)"/><rect x="173" y="110" width="9" height="9" transform="rotate(0,177.5,114.5)"/><rect x="173" y="119" width="9" height="9" transform="rotate(0,177.5,123.5)"/><path d="M 173 128v 9h 9v -4.5a 4.5 4.5, 0, 0, 0, -4.5 -4.5" transform="rotate(180,177.5,132.5)"/><path d="M 173 146v 9h 9v -4.5a 4.5 4.5, 0, 0, 0, -4.5 -4.5" transform="rotate(0,177.5,150.5)"/><path d="M 173 155v 9h 4.5a 4.5 4.5, 0, 0, 0, 0 -9" transform="rotate(90,177.5,159.5)"/><path d="M 173 173v 9h 4.5a 4.5 4.5, 0, 0, 0, 0 -9" transform="rotate(0,177.5,177.5)"/><path d="M 173 200v 9h 4.5a 4.5 4.5, 0, 0, 0, 0 -9" transform="rotate(180,177.5,204.5)"/><rect x="173" y="245" width="9" height="9" transform="rotate(0,177.5,249.5)"/><rect x="173" y="254" width="9" height="9" transform="rotate(0,177.5,258.5)"/><rect x="173" y="263" width="9" height="9" transform="rotate(0,177.5,267.5)"/><path d="M 173 281v 9h 9v -4.5a 4.5 4.5, 0, 0, 0, -4.5 -4.5" transform="rotate(0,177.5,285.5)"/><rect x="173" y="290" width="9" height="9" transform="rotate(0,177.5,294.5)"/><rect x="173" y="299" width="9" height="9" transform="rotate(0,177.5,303.5)"/><rect x="173" y="308" width="9" height="9" transform="rotate(0,177.5,312.5)"/><rect x="173" y="317" width="9" height="9" transform="rotate(0,177.5,321.5)"/><path d="M 173 335v 9h 4.5a 4.5 4.5, 0, 0, 0, 0 -9" transform="rotate(0,177.5,339.5)"/><path d="M 173 362v 9h 4.5a 4.5 4.5, 0, 0, 0, 0 -9" transform="rotate(180,177.5,366.5)"/><rect x="173" y="380" width="9" height="9" transform="rotate(0,177.5,384.5)"/><rect x="173" y="389" width="9" height="9" transform="rotate(0,177.5,393.5)"/><path d="M 173 416v 9h 4.5a 4.5 4.5, 0, 0, 0, 0 -9" transform="rotate(-90,177.5,420.5)"/><rect x="173" y="425" width="9" height="9" transform="rotate(0,177.5,429.5)"/><path d="M 173 443v 9h 4.5a 4.5 4.5, 0, 0, 0, 0 -9" transform="rotate(-90,177.5,447.5)"/><path d="M 173 452v 9h 9v -4.5a 4.5 4.5, 0, 0, 0, -4.5 -4.5" transform="rotate(90,177.5,456.5)"/><rect x="182" y="29" width="9" height="9" transform="rotate(0,186.5,33.5)"/><rect x="182" y="38" width="9" height="9" transform="rotate(0,186.5,42.5)"/><rect x="182" y="47" width="9" height="9" transform="rotate(0,186.5,51.5)"/><path d="M 182 56v 9h 9v -4.5a 4.5 4.5, 0, 0, 0, -4.5 -4.5" transform="rotate(90,186.5,60.5)"/><path d="M 182 101v 9h 4.5a 4.5 4.5, 0, 0, 0, 0 -9" transform="rotate(0,186.5,105.5)"/><rect x="182" y="128" width="9" height="9" transform="rotate(0,186.5,132.5)"/><path d="M 182 164v 9h 4.5a 4.5 4.5, 0, 0, 0, 0 -9" transform="rotate(180,186.5,168.5)"/><path d="M 182 191v 9h 9v -4.5a 4.5 4.5, 0, 0, 0, -4.5 -4.5" transform="rotate(-90,186.5,195.5)"/><rect x="182" y="200" width="9" height="9" transform="rotate(0,186.5,204.5)"/><path d="M 182 236v 9h 4.5a 4.5 4.5, 0, 0, 0, 0 -9" transform="rotate(-90,186.5,240.5)"/><rect x="182" y="245" width="9" height="9" transform="rotate(0,186.5,249.5)"/><path d="M 182 263v 9h 4.5a 4.5 4.5, 0, 0, 0, 0 -9" transform="rotate(0,186.5,267.5)"/><path d="M 182 290v 9h 9v -4.5a 4.5 4.5, 0, 0, 0, -4.5 -4.5" transform="rotate(0,186.5,294.5)"/><rect x="182" y="299" width="9" height="9" transform="rotate(0,186.5,303.5)"/><rect x="182" y="308" width="9" height="9" transform="rotate(0,186.5,312.5)"/><rect x="182" y="317" width="9" height="9" transform="rotate(0,186.5,321.5)"/><path d="M 182 326v 9h 9v -4.5a 4.5 4.5, 0, 0, 0, -4.5 -4.5" transform="rotate(180,186.5,330.5)"/><path d="M 182 344v 9h 9v -4.5a 4.5 4.5, 0, 0, 0, -4.5 -4.5" transform="rotate(-90,186.5,348.5)"/><rect x="182" y="353" width="9" height="9" transform="rotate(0,186.5,357.5)"/><path d="M 182 362v 9h 9v -4.5a 4.5 4.5, 0, 0, 0, -4.5 -4.5" transform="rotate(90,186.5,366.5)"/><path d="M 182 380v 9h 9v -4.5a 4.5 4.5, 0, 0, 0, -4.5 -4.5" transform="rotate(0,186.5,384.5)"/><rect x="182" y="389" width="9" height="9" transform="rotate(0,186.5,393.5)"/><path d="M 182 398v 9h 4.5a 4.5 4.5, 0, 0, 0, 0 -9" transform="rotate(90,186.5,402.5)"/><path d="M 182 425v 9h 4.5a 4.5 4.5, 0, 0, 0, 0 -9" transform="rotate(0,186.5,429.5)"/><path d="M 182 461v 9h 4.5a 4.5 4.5, 0, 0, 0, 0 -9" transform="rotate(180,186.5,465.5)"/><rect x="191" y="29" width="9" height="9" transform="rotate(0,195.5,33.5)"/><rect x="191" y="38" width="9" height="9" transform="rotate(0,195.5,42.5)"/><rect x="191" y="47" width="9" height="9" transform="rotate(0,195.5,51.5)"/><path d="M 191 65v 9h 4.5a 4.5 4.5, 0, 0, 0, 0 -9" transform="rotate(-90,195.5,69.5)"/><rect x="191" y="74" width="9" height="9" transform="rotate(0,195.5,78.5)"/><path d="M 191 83v 9h 4.5a 4.5 4.5, 0, 0, 0, 0 -9" transform="rotate(90,195.5,87.5)"/><path d="M 191 110v 9h 4.5a 4.5 4.5, 0, 0, 0, 0 -9" transform="rotate(180,195.5,114.5)"/><path d="M 191 128v 9h 9v -4.5a 4.5 4.5, 0, 0, 0, -4.5 -4.5" transform="rotate(0,195.5,132.5)"/><path d="M 191 137v 9h 9v -4.5a 4.5 4.5, 0, 0, 0, -4.5 -4.5" transform="rotate(180,195.5,141.5)"/><rect x="191" y="164" width="9" height="9" transform="rotate(0,195.5,168.5)"/><path d="M 191 191v 9h 9v -4.5a 4.5 4.5, 0, 0, 0, -4.5 -4.5" transform="rotate(0,195.5,195.5)"/><rect x="191" y="200" width="9" height="9" transform="rotate(0,195.5,204.5)"/><path d="M 191 209v 9h 9v -4.5a 4.5 4.5, 0, 0, 0, -4.5 -4.5" transform="rotate(180,195.5,213.5)"/><rect x="191" y="245" width="9" height="9" transform="rotate(0,195.5,249.5)"/><rect x="191" y="299" width="9" height="9" transform="rotate(0,195.5,303.5)"/><rect x="191" y="326" width="9" height="9" transform="rotate(0,195.5,330.5)"/><rect x="191" y="344" width="9" height="9" transform="rotate(0,195.5,348.5)"/><circle cx="195.5" cy="375.5" r="4.5" transform="rotate(0,195.5,375.5)"/><path d="M 191 389v 9h 4.5a 4.5 4.5, 0, 0, 0, 0 -9" transform="rotate(0,195.5,393.5)"/><path d="M 191 434v 9h 4.5a 4.5 4.5, 0, 0, 0, 0 -9" transform="rotate(180,195.5,438.5)"/><path d="M 191 452v 9h 9v -4.5a 4.5 4.5, 0, 0, 0, -4.5 -4.5" transform="rotate(-90,195.5,456.5)"/><rect x="191" y="461" width="9" height="9" transform="rotate(0,195.5,465.5)"/><path d="M 200 29v 9h 9v -4.5a 4.5 4.5, 0, 0, 0, -4.5 -4.5" transform="rotate(0,204.5,33.5)"/><rect x="200" y="38" width="9" height="9" transform="rotate(0,204.5,42.5)"/><path d="M 200 47v 9h 9v -4.5a 4.5 4.5, 0, 0, 0, -4.5 -4.5" transform="rotate(90,204.5,51.5)"/><path d="M 200 110v 9h 9v -4.5a 4.5 4.5, 0, 0, 0, -4.5 -4.5" transform="rotate(0,204.5,114.5)"/><path d="M 200 119v 9h 4.5a 4.5 4.5, 0, 0, 0, 0 -9" transform="rotate(90,204.5,123.5)"/><rect x="200" y="137" width="9" height="9" transform="rotate(0,204.5,141.5)"/><path d="M 200 155v 9h 4.5a 4.5 4.5, 0, 0, 0, 0 -9" transform="rotate(-90,204.5,159.5)"/><rect x="200" y="164" width="9" height="9" transform="rotate(0,204.5,168.5)"/><path d="M 200 182v 9h 4.5a 4.5 4.5, 0, 0, 0, 0 -9" transform="rotate(180,204.5,186.5)"/><path d="M 200 200v 9h 9v -4.5a 4.5 4.5, 0, 0, 0, -4.5 -4.5" transform="rotate(0,204.5,204.5)"/><rect x="200" y="209" width="9" height="9" transform="rotate(0,204.5,213.5)"/><path d="M 200 218v 9h 9v -4.5a 4.5 4.5, 0, 0, 0, -4.5 -4.5" transform="rotate(180,204.5,222.5)"/><path d="M 200 245v 9h 9v -4.5a 4.5 4.5, 0, 0, 0, -4.5 -4.5" transform="rotate(0,204.5,249.5)"/><rect x="200" y="254" width="9" height="9" transform="rotate(0,204.5,258.5)"/><path d="M 200 263v 9h 4.5a 4.5 4.5, 0, 0, 0, 0 -9" transform="rotate(90,204.5,267.5)"/><path d="M 200 290v 9h 9v -4.5a 4.5 4.5, 0, 0, 0, -4.5 -4.5" transform="rotate(-90,204.5,294.5)"/><rect x="200" y="299" width="9" height="9" transform="rotate(0,204.5,303.5)"/><path d="M 200 326v 9h 4.5a 4.5 4.5, 0, 0, 0, 0 -9" transform="rotate(0,204.5,330.5)"/><rect x="200" y="344" width="9" height="9" transform="rotate(0,204.5,348.5)"/><rect x="200" y="353" width="9" height="9" transform="rotate(0,204.5,357.5)"/><path d="M 200 362v 9h 4.5a 4.5 4.5, 0, 0, 0, 0 -9" transform="rotate(90,204.5,366.5)"/><circle cx="204.5" cy="384.5" r="4.5" transform="rotate(0,204.5,384.5)"/><circle cx="204.5" cy="402.5" r="4.5" transform="rotate(0,204.5,402.5)"/><circle cx="204.5" cy="420.5" r="4.5" transform="rotate(0,204.5,420.5)"/><rect x="200" y="434" width="9" height="9" transform="rotate(0,204.5,438.5)"/><rect x="200" y="452" width="9" height="9" transform="rotate(0,204.5,456.5)"/><path d="M 200 461v 9h 9v -4.5a 4.5 4.5, 0, 0, 0, -4.5 -4.5" transform="rotate(90,204.5,465.5)"/><path d="M 209 38v 9h 4.5a 4.5 4.5, 0, 0, 0, 0 -9" transform="rotate(0,213.5,42.5)"/><circle cx="213.5" cy="87.5" r="4.5" transform="rotate(0,213.5,87.5)"/><circle cx="213.5" cy="105.5" r="4.5" transform="rotate(0,213.5,105.5)"/><path d="M 209 128v 9h 9v -4.5a 4.5 4.5, 0, 0, 0, -4.5 -4.5" transform="rotate(-90,213.5,132.5)"/><rect x="209" y="137" width="9" height="9" transform="rotate(0,213.5,141.5)"/><path d="M 209 164v 9h 9v -4.5a 4.5 4.5, 0, 0, 0, -4.5 -4.5" transform="rotate(0,213.5,168.5)"/><rect x="209" y="173" width="9" height="9" transform="rotate(0,213.5,177.5)"/><rect x="209" y="182" width="9" height="9" transform="rotate(0,213.5,186.5)"/><path d="M 209 191v 9h 4.5a 4.5 4.5, 0, 0, 0, 0 -9" transform="rotate(90,213.5,195.5)"/><path d="M 209 218v 9h 9v -4.5a 4.5 4.5, 0, 0, 0, -4.5 -4.5" transform="rotate(0,213.5,222.5)"/><path d="M 209 227v 9h 9v -4.5a 4.5 4.5, 0, 0, 0, -4.5 -4.5" transform="rotate(180,213.5,231.5)"/><rect x="209" y="254" width="9" height="9" transform="rotate(0,213.5,258.5)"/><path d="M 209 290v 9h 9v -4.5a 4.5 4.5, 0, 0, 0, -4.5 -4.5" transform="rotate(0,213.5,294.5)"/><rect x="209" y="299" width="9" height="9" transform="rotate(0,213.5,303.5)"/><path d="M 209 335v 9h 4.5a 4.5 4.5, 0, 0, 0, 0 -9" transform="rotate(-90,213.5,339.5)"/><rect x="209" y="344" width="9" height="9" transform="rotate(0,213.5,348.5)"/><circle cx="213.5" cy="375.5" r="4.5" transform="rotate(0,213.5,375.5)"/><path d="M 209 434v 9h 4.5a 4.5 4.5, 0, 0, 0, 0 -9" transform="rotate(0,213.5,438.5)"/><path d="M 209 452v 9h 4.5a 4.5 4.5, 0, 0, 0, 0 -9" transform="rotate(0,213.5,456.5)"/><path d="M 218 29v 9h 4.5a 4.5 4.5, 0, 0, 0, 0 -9" transform="rotate(180,222.5,33.5)"/><path d="M 218 56v 9h 4.5a 4.5 4.5, 0, 0, 0, 0 -9" transform="rotate(-90,222.5,60.5)"/><rect x="218" y="65" width="9" height="9" transform="rotate(0,222.5,69.5)"/><path d="M 218 74v 9h 9v -4.5a 4.5 4.5, 0, 0, 0, -4.5 -4.5" transform="rotate(180,222.5,78.5)"/><path d="M 218 92v 9h 4.5a 4.5 4.5, 0, 0, 0, 0 -9" transform="rotate(180,222.5,96.5)"/><path d="M 218 119v 9h 4.5a 4.5 4.5, 0, 0, 0, 0 -9" transform="rotate(-90,222.5,123.5)"/><rect x="218" y="128" width="9" height="9" transform="rotate(0,222.5,132.5)"/><rect x="218" y="137" width="9" height="9" transform="rotate(0,222.5,141.5)"/><path d="M 218 146v 9h 4.5a 4.5 4.5, 0, 0, 0, 0 -9" transform="rotate(90,222.5,150.5)"/><path d="M 218 182v 9h 4.5a 4.5 4.5, 0, 0, 0, 0 -9" transform="rotate(0,222.5,186.5)"/><path d="M 218 200v 9h 4.5a 4.5 4.5, 0, 0, 0, 0 -9" transform="rotate(180,222.5,204.5)"/><rect x="218" y="227" width="9" height="9" transform="rotate(0,222.5,231.5)"/><rect x="218" y="236" width="9" height="9" transform="rotate(0,222.5,240.5)"/><rect x="218" y="245" width="9" height="9" transform="rotate(0,222.5,249.5)"/><rect x="218" y="254" width="9" height="9" transform="rotate(0,222.5,258.5)"/><path d="M 218 272v 9h 9v -4.5a 4.5 4.5, 0, 0, 0, -4.5 -4.5" transform="rotate(-90,222.5,276.5)"/><path d="M 218 281v 9h 9v -4.5a 4.5 4.5, 0, 0, 0, -4.5 -4.5" transform="rotate(180,222.5,285.5)"/><rect x="218" y="299" width="9" height="9" transform="rotate(0,222.5,303.5)"/><rect x="218" y="344" width="9" height="9" transform="rotate(0,222.5,348.5)"/><path d="M 218 353v 9h 9v -4.5a 4.5 4.5, 0, 0, 0, -4.5 -4.5" transform="rotate(180,222.5,357.5)"/><path d="M 218 398v 9h 9v -4.5a 4.5 4.5, 0, 0, 0, -4.5 -4.5" transform="rotate(-90,222.5,402.5)"/><path d="M 218 407v 9h 9v -4.5a 4.5 4.5, 0, 0, 0, -4.5 -4.5" transform="rotate(180,222.5,411.5)"/><path d="M 227 29v 9h 9v -4.5a 4.5 4.5, 0, 0, 0, -4.5 -4.5" transform="rotate(0,231.5,33.5)"/><path d="M 227 38v 9h 4.5a 4.5 4.5, 0, 0, 0, 0 -9" transform="rotate(90,231.5,42.5)"/><rect x="227" y="65" width="9" height="9" transform="rotate(0,231.5,69.5)"/><rect x="227" y="74" width="9" height="9" transform="rotate(0,231.5,78.5)"/><rect x="227" y="83" width="9" height="9" transform="rotate(0,231.5,87.5)"/><rect x="227" y="92" width="9" height="9" transform="rotate(0,231.5,96.5)"/><path d="M 227 101v 9h 9v -4.5a 4.5 4.5, 0, 0, 0, -4.5 -4.5" transform="rotate(180,231.5,105.5)"/><path d="M 227 173v 9h 4.5a 4.5 4.5, 0, 0, 0, 0 -9" transform="rotate(180,231.5,177.5)"/><path d="M 227 191v 9h 9v -4.5a 4.5 4.5, 0, 0, 0, -4.5 -4.5" transform="rotate(-90,231.5,195.5)"/><rect x="227" y="200" width="9" height="9" transform="rotate(0,231.5,204.5)"/><rect x="227" y="209" width="9" height="9" transform="rotate(0,231.5,213.5)"/><rect x="227" y="218" width="9" height="9" transform="rotate(0,231.5,222.5)"/><rect x="227" y="227" width="9" height="9" transform="rotate(0,231.5,231.5)"/><rect x="227" y="236" width="9" height="9" transform="rotate(0,231.5,240.5)"/><rect x="227" y="245" width="9" height="9" transform="rotate(0,231.5,249.5)"/><rect x="227" y="254" width="9" height="9" transform="rotate(0,231.5,258.5)"/><rect x="227" y="263" width="9" height="9" transform="rotate(0,231.5,267.5)"/><rect x="227" y="272" width="9" height="9" transform="rotate(0,231.5,276.5)"/><rect x="227" y="281" width="9" height="9" transform="rotate(0,231.5,285.5)"/><rect x="227" y="290" width="9" height="9" transform="rotate(0,231.5,294.5)"/><rect x="227" y="299" width="9" height="9" transform="rotate(0,231.5,303.5)"/><path d="M 227 308v 9h 4.5a 4.5 4.5, 0, 0, 0, 0 -9" transform="rotate(90,231.5,312.5)"/><path d="M 227 335v 9h 4.5a 4.5 4.5, 0, 0, 0, 0 -9" transform="rotate(-90,231.5,339.5)"/><rect x="227" y="344" width="9" height="9" transform="rotate(0,231.5,348.5)"/><rect x="227" y="353" width="9" height="9" transform="rotate(0,231.5,357.5)"/><path d="M 227 380v 9h 4.5a 4.5 4.5, 0, 0, 0, 0 -9" transform="rotate(-90,231.5,384.5)"/><rect x="227" y="389" width="9" height="9" transform="rotate(0,231.5,393.5)"/><rect x="227" y="398" width="9" height="9" transform="rotate(0,231.5,402.5)"/><rect x="227" y="407" width="9" height="9" transform="rotate(0,231.5,411.5)"/><rect x="227" y="416" width="9" height="9" transform="rotate(0,231.5,420.5)"/><path d="M 227 425v 9h 9v -4.5a 4.5 4.5, 0, 0, 0, -4.5 -4.5" transform="rotate(180,231.5,429.5)"/><path d="M 227 443v 9h 4.5a 4.5 4.5, 0, 0, 0, 0 -9" transform="rotate(180,231.5,447.5)"/><path d="M 236 56v 9h 4.5a 4.5 4.5, 0, 0, 0, 0 -9" transform="rotate(-90,240.5,60.5)"/><rect x="236" y="65" width="9" height="9" transform="rotate(0,240.5,69.5)"/><rect x="236" y="101" width="9" height="9" transform="rotate(0,240.5,105.5)"/><rect x="236" y="110" width="9" height="9" transform="rotate(0,240.5,114.5)"/><path d="M 236 119v 9h 9v -4.5a 4.5 4.5, 0, 0, 0, -4.5 -4.5" transform="rotate(180,240.5,123.5)"/><path d="M 236 137v 9h 4.5a 4.5 4.5, 0, 0, 0, 0 -9" transform="rotate(180,240.5,141.5)"/><path d="M 236 155v 9h 4.5a 4.5 4.5, 0, 0, 0, 0 -9" transform="rotate(180,240.5,159.5)"/><path d="M 236 173v 9h 9v -4.5a 4.5 4.5, 0, 0, 0, -4.5 -4.5" transform="rotate(0,240.5,177.5)"/><rect x="236" y="182" width="9" height="9" transform="rotate(0,240.5,186.5)"/><rect x="236" y="191" width="9" height="9" transform="rotate(0,240.5,195.5)"/><rect x="236" y="200" width="9" height="9" transform="rotate(0,240.5,204.5)"/><rect x="236" y="209" width="9" height="9" transform="rotate(0,240.5,213.5)"/><rect x="236" y="218" width="9" height="9" transform="rotate(0,240.5,222.5)"/><rect x="236" y="227" width="9" height="9" transform="rotate(0,240.5,231.5)"/><rect x="236" y="263" width="9" height="9" transform="rotate(0,240.5,267.5)"/><rect x="236" y="272" width="9" height="9" transform="rotate(0,240.5,276.5)"/><path d="M 236 281v 9h 9v -4.5a 4.5 4.5, 0, 0, 0, -4.5 -4.5" transform="rotate(90,240.5,285.5)"/><path d="M 236 317v 9h 4.5a 4.5 4.5, 0, 0, 0, 0 -9" transform="rotate(-90,240.5,321.5)"/><path d="M 236 326v 9h 4.5a 4.5 4.5, 0, 0, 0, 0 -9" transform="rotate(90,240.5,330.5)"/><rect x="236" y="353" width="9" height="9" transform="rotate(0,240.5,357.5)"/><rect x="236" y="389" width="9" height="9" transform="rotate(0,240.5,393.5)"/><rect x="236" y="425" width="9" height="9" transform="rotate(0,240.5,429.5)"/><rect x="236" y="434" width="9" height="9" transform="rotate(0,240.5,438.5)"/><rect x="236" y="443" width="9" height="9" transform="rotate(0,240.5,447.5)"/><path d="M 236 461v 9h 4.5a 4.5 4.5, 0, 0, 0, 0 -9" transform="rotate(180,240.5,465.5)"/><rect x="245" y="65" width="9" height="9" transform="rotate(0,249.5,69.5)"/><circle cx="249.5" cy="87.5" r="4.5" transform="rotate(0,249.5,87.5)"/><rect x="245" y="101" width="9" height="9" transform="rotate(0,249.5,105.5)"/><path d="M 245 119v 9h 9v -4.5a 4.5 4.5, 0, 0, 0, -4.5 -4.5" transform="rotate(0,249.5,123.5)"/><rect x="245" y="128" width="9" height="9" transform="rotate(0,249.5,132.5)"/><rect x="245" y="137" width="9" height="9" transform="rotate(0,249.5,141.5)"/><rect x="245" y="146" width="9" height="9" transform="rotate(0,249.5,150.5)"/><rect x="245" y="155" width="9" height="9" transform="rotate(0,249.5,159.5)"/><path d="M 245 164v 9h 4.5a 4.5 4.5, 0, 0, 0, 0 -9" transform="rotate(90,249.5,168.5)"/><rect x="245" y="182" width="9" height="9" transform="rotate(0,249.5,186.5)"/><path d="M 245 191v 9h 9v -4.5a 4.5 4.5, 0, 0, 0, -4.5 -4.5" transform="rotate(90,249.5,195.5)"/><rect x="245" y="227" width="9" height="9" transform="rotate(0,249.5,231.5)"/><circle cx="249.5" cy="249.5" r="4.5" transform="rotate(0,249.5,249.5)"/><rect x="245" y="263" width="9" height="9" transform="rotate(0,249.5,267.5)"/><rect x="245" y="272" width="9" height="9" transform="rotate(0,249.5,276.5)"/><path d="M 245 290v 9h 9v -4.5a 4.5 4.5, 0, 0, 0, -4.5 -4.5" transform="rotate(-90,249.5,294.5)"/><rect x="245" y="299" width="9" height="9" transform="rotate(0,249.5,303.5)"/><path d="M 245 308v 9h 9v -4.5a 4.5 4.5, 0, 0, 0, -4.5 -4.5" transform="rotate(180,249.5,312.5)"/><path d="M 245 344v 9h 4.5a 4.5 4.5, 0, 0, 0, 0 -9" transform="rotate(-90,249.5,348.5)"/><rect x="245" y="353" width="9" height="9" transform="rotate(0,249.5,357.5)"/><path d="M 245 362v 9h 4.5a 4.5 4.5, 0, 0, 0, 0 -9" transform="rotate(90,249.5,366.5)"/><path d="M 245 380v 9h 9v -4.5a 4.5 4.5, 0, 0, 0, -4.5 -4.5" transform="rotate(-90,249.5,384.5)"/><rect x="245" y="389" width="9" height="9" transform="rotate(0,249.5,393.5)"/><circle cx="249.5" cy="411.5" r="4.5" transform="rotate(0,249.5,411.5)"/><rect x="245" y="425" width="9" height="9" transform="rotate(0,249.5,429.5)"/><rect x="245" y="434" width="9" height="9" transform="rotate(0,249.5,438.5)"/><rect x="245" y="443" width="9" height="9" transform="rotate(0,249.5,447.5)"/><rect x="245" y="461" width="9" height="9" transform="rotate(0,249.5,465.5)"/><path d="M 254 47v 9h 4.5a 4.5 4.5, 0, 0, 0, 0 -9" transform="rotate(180,258.5,51.5)"/><rect x="254" y="65" width="9" height="9" transform="rotate(0,258.5,69.5)"/><rect x="254" y="101" width="9" height="9" transform="rotate(0,258.5,105.5)"/><rect x="254" y="128" width="9" height="9" transform="rotate(0,258.5,132.5)"/><rect x="254" y="146" width="9" height="9" transform="rotate(0,258.5,150.5)"/><rect x="254" y="155" width="9" height="9" transform="rotate(0,258.5,159.5)"/><rect x="254" y="182" width="9" height="9" transform="rotate(0,258.5,186.5)"/><path d="M 254 209v 9h 4.5a 4.5 4.5, 0, 0, 0, 0 -9" transform="rotate(-90,258.5,213.5)"/><rect x="254" y="218" width="9" height="9" transform="rotate(0,258.5,222.5)"/><rect x="254" y="227" width="9" height="9" transform="rotate(0,258.5,231.5)"/><rect x="254" y="263" width="9" height="9" transform="rotate(0,258.5,267.5)"/><path d="M 254 272v 9h 9v -4.5a 4.5 4.5, 0, 0, 0, -4.5 -4.5" transform="rotate(90,258.5,276.5)"/><path d="M 254 290v 9h 4.5a 4.5 4.5, 0, 0, 0, 0 -9" transform="rotate(0,258.5,294.5)"/><path d="M 254 308v 9h 4.5a 4.5 4.5, 0, 0, 0, 0 -9" transform="rotate(0,258.5,312.5)"/><path d="M 254 353v 9h 4.5a 4.5 4.5, 0, 0, 0, 0 -9" transform="rotate(0,258.5,357.5)"/><path d="M 254 371v 9h 9v -4.5a 4.5 4.5, 0, 0, 0, -4.5 -4.5" transform="rotate(-90,258.5,375.5)"/><rect x="254" y="380" width="9" height="9" transform="rotate(0,258.5,384.5)"/><rect x="254" y="389" width="9" height="9" transform="rotate(0,258.5,393.5)"/><rect x="254" y="425" width="9" height="9" transform="rotate(0,258.5,429.5)"/><rect x="254" y="434" width="9" height="9" transform="rotate(0,258.5,438.5)"/><rect x="254" y="443" width="9" height="9" transform="rotate(0,258.5,447.5)"/><rect x="254" y="452" width="9" height="9" transform="rotate(0,258.5,456.5)"/><path d="M 254 461v 9h 9v -4.5a 4.5 4.5, 0, 0, 0, -4.5 -4.5" transform="rotate(90,258.5,465.5)"/><path d="M 263 38v 9h 9v -4.5a 4.5 4.5, 0, 0, 0, -4.5 -4.5" transform="rotate(-90,267.5,42.5)"/><path d="M 263 47v 9h 9v -4.5a 4.5 4.5, 0, 0, 0, -4.5 -4.5" transform="rotate(90,267.5,51.5)"/><rect x="263" y="65" width="9" height="9" transform="rotate(0,267.5,69.5)"/><rect x="263" y="74" width="9" height="9" transform="rotate(0,267.5,78.5)"/><rect x="263" y="83" width="9" height="9" transform="rotate(0,267.5,87.5)"/><rect x="263" y="92" width="9" height="9" transform="rotate(0,267.5,96.5)"/><rect x="263" y="101" width="9" height="9" transform="rotate(0,267.5,105.5)"/><path d="M 263 110v 9h 9v -4.5a 4.5 4.5, 0, 0, 0, -4.5 -4.5" transform="rotate(180,267.5,114.5)"/><rect x="263" y="128" width="9" height="9" transform="rotate(0,267.5,132.5)"/><rect x="263" y="146" width="9" height="9" transform="rotate(0,267.5,150.5)"/><rect x="263" y="155" width="9" height="9" transform="rotate(0,267.5,159.5)"/><path d="M 263 173v 9h 9v -4.5a 4.5 4.5, 0, 0, 0, -4.5 -4.5" transform="rotate(-90,267.5,177.5)"/><rect x="263" y="182" width="9" height="9" transform="rotate(0,267.5,186.5)"/><path d="M 263 200v 9h 4.5a 4.5 4.5, 0, 0, 0, 0 -9" transform="rotate(180,267.5,204.5)"/><rect x="263" y="218" width="9" height="9" transform="rotate(0,267.5,222.5)"/><rect x="263" y="227" width="9" height="9" transform="rotate(0,267.5,231.5)"/><rect x="263" y="236" width="9" height="9" transform="rotate(0,267.5,240.5)"/><rect x="263" y="245" width="9" height="9" transform="rotate(0,267.5,249.5)"/><rect x="263" y="254" width="9" height="9" transform="rotate(0,267.5,258.5)"/><rect x="263" y="263" width="9" height="9" transform="rotate(0,267.5,267.5)"/><path d="M 263 281v 9h 4.5a 4.5 4.5, 0, 0, 0, 0 -9" transform="rotate(180,267.5,285.5)"/><path d="M 263 299v 9h 4.5a 4.5 4.5, 0, 0, 0, 0 -9" transform="rotate(180,267.5,303.5)"/><path d="M 263 317v 9h 4.5a 4.5 4.5, 0, 0, 0, 0 -9" transform="rotate(180,267.5,321.5)"/><path d="M 263 362v 9h 9v -4.5a 4.5 4.5, 0, 0, 0, -4.5 -4.5" transform="rotate(-90,267.5,366.5)"/><rect x="263" y="371" width="9" height="9" transform="rotate(0,267.5,375.5)"/><rect x="263" y="389" width="9" height="9" transform="rotate(0,267.5,393.5)"/><rect x="263" y="398" width="9" height="9" transform="rotate(0,267.5,402.5)"/><rect x="263" y="407" width="9" height="9" transform="rotate(0,267.5,411.5)"/><rect x="263" y="416" width="9" height="9" transform="rotate(0,267.5,420.5)"/><path d="M 263 425v 9h 9v -4.5a 4.5 4.5, 0, 0, 0, -4.5 -4.5" transform="rotate(90,267.5,429.5)"/><path d="M 263 443v 9h 9v -4.5a 4.5 4.5, 0, 0, 0, -4.5 -4.5" transform="rotate(0,267.5,447.5)"/><path d="M 263 452v 9h 9v -4.5a 4.5 4.5, 0, 0, 0, -4.5 -4.5" transform="rotate(90,267.5,456.5)"/><path d="M 272 29v 9h 9v -4.5a 4.5 4.5, 0, 0, 0, -4.5 -4.5" transform="rotate(-90,276.5,33.5)"/><path d="M 272 38v 9h 9v -4.5a 4.5 4.5, 0, 0, 0, -4.5 -4.5" transform="rotate(90,276.5,42.5)"/><path d="M 272 65v 9h 4.5a 4.5 4.5, 0, 0, 0, 0 -9" transform="rotate(0,276.5,69.5)"/><path d="M 272 92v 9h 9v -4.5a 4.5 4.5, 0, 0, 0, -4.5 -4.5" transform="rotate(0,276.5,96.5)"/><rect x="272" y="101" width="9" height="9" transform="rotate(0,276.5,105.5)"/><rect x="272" y="110" width="9" height="9" transform="rotate(0,276.5,114.5)"/><rect x="272" y="119" width="9" height="9" transform="rotate(0,276.5,123.5)"/><path d="M 272 128v 9h 9v -4.5a 4.5 4.5, 0, 0, 0, -4.5 -4.5" transform="rotate(90,276.5,132.5)"/><rect x="272" y="146" width="9" height="9" transform="rotate(0,276.5,150.5)"/><rect x="272" y="155" width="9" height="9" transform="rotate(0,276.5,159.5)"/><rect x="272" y="164" width="9" height="9" transform="rotate(0,276.5,168.5)"/><rect x="272" y="173" width="9" height="9" transform="rotate(0,276.5,177.5)"/><rect x="272" y="182" width="9" height="9" transform="rotate(0,276.5,186.5)"/><rect x="272" y="191" width="9" height="9" transform="rotate(0,276.5,195.5)"/><rect x="272" y="200" width="9" height="9" transform="rotate(0,276.5,204.5)"/><rect x="272" y="209" width="9" height="9" transform="rotate(0,276.5,213.5)"/><path d="M 272 218v 9h 9v -4.5a 4.5 4.5, 0, 0, 0, -4.5 -4.5" transform="rotate(90,276.5,222.5)"/><path d="M 272 236v 9h 9v -4.5a 4.5 4.5, 0, 0, 0, -4.5 -4.5" transform="rotate(0,276.5,240.5)"/><rect x="272" y="245" width="9" height="9" transform="rotate(0,276.5,249.5)"/><rect x="272" y="263" width="9" height="9" transform="rotate(0,276.5,267.5)"/><rect x="272" y="272" width="9" height="9" transform="rotate(0,276.5,276.5)"/><path d="M 272 281v 9h 9v -4.5a 4.5 4.5, 0, 0, 0, -4.5 -4.5" transform="rotate(90,276.5,285.5)"/><rect x="272" y="299" width="9" height="9" transform="rotate(0,276.5,303.5)"/><rect x="272" y="317" width="9" height="9" transform="rotate(0,276.5,321.5)"/><circle cx="276.5" cy="348.5" r="4.5" transform="rotate(0,276.5,348.5)"/><rect x="272" y="362" width="9" height="9" transform="rotate(0,276.5,366.5)"/><path d="M 272 371v 9h 9v -4.5a 4.5 4.5, 0, 0, 0, -4.5 -4.5" transform="rotate(90,276.5,375.5)"/><rect x="272" y="389" width="9" height="9" transform="rotate(0,276.5,393.5)"/><path d="M 272 398v 9h 9v -4.5a 4.5 4.5, 0, 0, 0, -4.5 -4.5" transform="rotate(90,276.5,402.5)"/><path d="M 272 416v 9h 4.5a 4.5 4.5, 0, 0, 0, 0 -9" transform="rotate(0,276.5,420.5)"/><path d="M 281 29v 9h 4.5a 4.5 4.5, 0, 0, 0, 0 -9" transform="rotate(0,285.5,33.5)"/><circle cx="285.5" cy="60.5" r="4.5" transform="rotate(0,285.5,60.5)"/><path d="M 281 74v 9h 4.5a 4.5 4.5, 0, 0, 0, 0 -9" transform="rotate(-90,285.5,78.5)"/><path d="M 281 83v 9h 4.5a 4.5 4.5, 0, 0, 0, 0 -9" transform="rotate(90,285.5,87.5)"/><rect x="281" y="101" width="9" height="9" transform="rotate(0,285.5,105.5)"/><path d="M 281 146v 9h 9v -4.5a 4.5 4.5, 0, 0, 0, -4.5 -4.5" transform="rotate(0,285.5,150.5)"/><rect x="281" y="155" width="9" height="9" transform="rotate(0,285.5,159.5)"/><rect x="281" y="164" width="9" height="9" transform="rotate(0,285.5,168.5)"/><rect x="281" y="173" width="9" height="9" transform="rotate(0,285.5,177.5)"/><circle cx="285.5" cy="231.5" r="4.5" transform="rotate(0,285.5,231.5)"/><rect x="281" y="245" width="9" height="9" transform="rotate(0,285.5,249.5)"/><rect x="281" y="254" width="9" height="9" transform="rotate(0,285.5,258.5)"/><rect x="281" y="263" width="9" height="9" transform="rotate(0,285.5,267.5)"/><rect x="281" y="272" width="9" height="9" transform="rotate(0,285.5,276.5)"/><path d="M 281 290v 9h 9v -4.5a 4.5 4.5, 0, 0, 0, -4.5 -4.5" transform="rotate(-90,285.5,294.5)"/><rect x="281" y="299" width="9" height="9" transform="rotate(0,285.5,303.5)"/><rect x="281" y="308" width="9" height="9" transform="rotate(0,285.5,312.5)"/><rect x="281" y="317" width="9" height="9" transform="rotate(0,285.5,321.5)"/><path d="M 281 326v 9h 9v -4.5a 4.5 4.5, 0, 0, 0, -4.5 -4.5" transform="rotate(180,285.5,330.5)"/><path d="M 281 362v 9h 4.5a 4.5 4.5, 0, 0, 0, 0 -9" transform="rotate(0,285.5,366.5)"/><rect x="281" y="389" width="9" height="9" transform="rotate(0,285.5,393.5)"/><path d="M 281 443v 9h 9v -4.5a 4.5 4.5, 0, 0, 0, -4.5 -4.5" transform="rotate(-90,285.5,447.5)"/><path d="M 281 452v 9h 9v -4.5a 4.5 4.5, 0, 0, 0, -4.5 -4.5" transform="rotate(180,285.5,456.5)"/><circle cx="294.5" cy="51.5" r="4.5" transform="rotate(0,294.5,51.5)"/><path d="M 290 101v 9h 9v -4.5a 4.5 4.5, 0, 0, 0, -4.5 -4.5" transform="rotate(0,294.5,105.5)"/><path d="M 290 110v 9h 9v -4.5a 4.5 4.5, 0, 0, 0, -4.5 -4.5" transform="rotate(180,294.5,114.5)"/><path d="M 290 137v 9h 4.5a 4.5 4.5, 0, 0, 0, 0 -9" transform="rotate(180,294.5,141.5)"/><path d="M 290 155v 9h 4.5a 4.5 4.5, 0, 0, 0, 0 -9" transform="rotate(0,294.5,159.5)"/><rect x="290" y="173" width="9" height="9" transform="rotate(0,294.5,177.5)"/><rect x="290" y="182" width="9" height="9" transform="rotate(0,294.5,186.5)"/><path d="M 290 191v 9h 4.5a 4.5 4.5, 0, 0, 0, 0 -9" transform="rotate(90,294.5,195.5)"/><path d="M 290 218v 9h 4.5a 4.5 4.5, 0, 0, 0, 0 -9" transform="rotate(180,294.5,222.5)"/><path d="M 290 236v 9h 9v -4.5a 4.5 4.5, 0, 0, 0, -4.5 -4.5" transform="rotate(-90,294.5,240.5)"/><rect x="290" y="245" width="9" height="9" transform="rotate(0,294.5,249.5)"/><path d="M 290 263v 9h 9v -4.5a 4.5 4.5, 0, 0, 0, -4.5 -4.5" transform="rotate(0,294.5,267.5)"/><path d="M 290 272v 9h 9v -4.5a 4.5 4.5, 0, 0, 0, -4.5 -4.5" transform="rotate(90,294.5,276.5)"/><path d="M 290 290v 9h 4.5a 4.5 4.5, 0, 0, 0, 0 -9" transform="rotate(0,294.5,294.5)"/><rect x="290" y="317" width="9" height="9" transform="rotate(0,294.5,321.5)"/><rect x="290" y="326" width="9" height="9" transform="rotate(0,294.5,330.5)"/><rect x="290" y="335" width="9" height="9" transform="rotate(0,294.5,339.5)"/><rect x="290" y="344" width="9" height="9" transform="rotate(0,294.5,348.5)"/><path d="M 290 353v 9h 4.5a 4.5 4.5, 0, 0, 0, 0 -9" transform="rotate(90,294.5,357.5)"/><rect x="290" y="389" width="9" height="9" transform="rotate(0,294.5,393.5)"/><path d="M 290 398v 9h 4.5a 4.5 4.5, 0, 0, 0, 0 -9" transform="rotate(90,294.5,402.5)"/><path d="M 290 434v 9h 4.5a 4.5 4.5, 0, 0, 0, 0 -9" transform="rotate(-90,294.5,438.5)"/><rect x="290" y="443" width="9" height="9" transform="rotate(0,294.5,447.5)"/><rect x="290" y="452" width="9" height="9" transform="rotate(0,294.5,456.5)"/><path d="M 290 461v 9h 9v -4.5a 4.5 4.5, 0, 0, 0, -4.5 -4.5" transform="rotate(180,294.5,465.5)"/><path d="M 299 29v 9h 4.5a 4.5 4.5, 0, 0, 0, 0 -9" transform="rotate(180,303.5,33.5)"/><path d="M 299 56v 9h 9v -4.5a 4.5 4.5, 0, 0, 0, -4.5 -4.5" transform="rotate(-90,303.5,60.5)"/><rect x="299" y="65" width="9" height="9" transform="rotate(0,303.5,69.5)"/><rect x="299" y="74" width="9" height="9" transform="rotate(0,303.5,78.5)"/><path d="M 299 83v 9h 4.5a 4.5 4.5, 0, 0, 0, 0 -9" transform="rotate(90,303.5,87.5)"/><rect x="299" y="110" width="9" height="9" transform="rotate(0,303.5,114.5)"/><rect x="299" y="119" width="9" height="9" transform="rotate(0,303.5,123.5)"/><rect x="299" y="128" width="9" height="9" transform="rotate(0,303.5,132.5)"/><rect x="299" y="137" width="9" height="9" transform="rotate(0,303.5,141.5)"/><path d="M 299 164v 9h 9v -4.5a 4.5 4.5, 0, 0, 0, -4.5 -4.5" transform="rotate(-90,303.5,168.5)"/><rect x="299" y="173" width="9" height="9" transform="rotate(0,303.5,177.5)"/><path d="M 299 200v 9h 4.5a 4.5 4.5, 0, 0, 0, 0 -9" transform="rotate(-90,303.5,204.5)"/><rect x="299" y="209" width="9" height="9" transform="rotate(0,303.5,213.5)"/><path d="M 299 218v 9h 9v -4.5a 4.5 4.5, 0, 0, 0, -4.5 -4.5" transform="rotate(90,303.5,222.5)"/><path d="M 299 236v 9h 9v -4.5a 4.5 4.5, 0, 0, 0, -4.5 -4.5" transform="rotate(0,303.5,240.5)"/><rect x="299" y="245" width="9" height="9" transform="rotate(0,303.5,249.5)"/><path d="M 299 254v 9h 9v -4.5a 4.5 4.5, 0, 0, 0, -4.5 -4.5" transform="rotate(180,303.5,258.5)"/><circle cx="303.5" cy="285.5" r="4.5" transform="rotate(0,303.5,285.5)"/><path d="M 299 299v 9h 9v -4.5a 4.5 4.5, 0, 0, 0, -4.5 -4.5" transform="rotate(-90,303.5,303.5)"/><rect x="299" y="308" width="9" height="9" transform="rotate(0,303.5,312.5)"/><rect x="299" y="317" width="9" height="9" transform="rotate(0,303.5,321.5)"/><rect x="299" y="326" width="9" height="9" transform="rotate(0,303.5,330.5)"/><rect x="299" y="335" width="9" height="9" transform="rotate(0,303.5,339.5)"/><rect x="299" y="344" width="9" height="9" transform="rotate(0,303.5,348.5)"/><path d="M 299 362v 9h 4.5a 4.5 4.5, 0, 0, 0, 0 -9" transform="rotate(180,303.5,366.5)"/><path d="M 299 380v 9h 9v -4.5a 4.5 4.5, 0, 0, 0, -4.5 -4.5" transform="rotate(-90,303.5,384.5)"/><rect x="299" y="389" width="9" height="9" transform="rotate(0,303.5,393.5)"/><path d="M 299 407v 9h 9v -4.5a 4.5 4.5, 0, 0, 0, -4.5 -4.5" transform="rotate(-90,303.5,411.5)"/><rect x="299" y="416" width="9" height="9" transform="rotate(0,303.5,420.5)"/><path d="M 299 425v 9h 4.5a 4.5 4.5, 0, 0, 0, 0 -9" transform="rotate(90,303.5,429.5)"/><path d="M 299 452v 9h 9v -4.5a 4.5 4.5, 0, 0, 0, -4.5 -4.5" transform="rotate(0,303.5,456.5)"/><rect x="299" y="461" width="9" height="9" transform="rotate(0,303.5,465.5)"/><rect x="308" y="29" width="9" height="9" transform="rotate(0,312.5,33.5)"/><path d="M 308 47v 9h 4.5a 4.5 4.5, 0, 0, 0, 0 -9" transform="rotate(-90,312.5,51.5)"/><rect x="308" y="56" width="9" height="9" transform="rotate(0,312.5,60.5)"/><rect x="308" y="65" width="9" height="9" transform="rotate(0,312.5,69.5)"/><rect x="308" y="74" width="9" height="9" transform="rotate(0,312.5,78.5)"/><path d="M 308 92v 9h 4.5a 4.5 4.5, 0, 0, 0, 0 -9" transform="rotate(180,312.5,96.5)"/><rect x="308" y="110" width="9" height="9" transform="rotate(0,312.5,114.5)"/><path d="M 308 137v 9h 4.5a 4.5 4.5, 0, 0, 0, 0 -9" transform="rotate(0,312.5,141.5)"/><path d="M 308 164v 9h 9v -4.5a 4.5 4.5, 0, 0, 0, -4.5 -4.5" transform="rotate(0,312.5,168.5)"/><path d="M 308 173v 9h 9v -4.5a 4.5 4.5, 0, 0, 0, -4.5 -4.5" transform="rotate(90,312.5,177.5)"/><circle cx="312.5" cy="195.5" r="4.5" transform="rotate(0,312.5,195.5)"/><path d="M 308 227v 9h 4.5a 4.5 4.5, 0, 0, 0, 0 -9" transform="rotate(180,312.5,231.5)"/><path d="M 308 245v 9h 9v -4.5a 4.5 4.5, 0, 0, 0, -4.5 -4.5" transform="rotate(0,312.5,249.5)"/><rect x="308" y="254" width="9" height="9" transform="rotate(0,312.5,258.5)"/><path d="M 308 263v 9h 4.5a 4.5 4.5, 0, 0, 0, 0 -9" transform="rotate(90,312.5,267.5)"/><rect x="308" y="299" width="9" height="9" transform="rotate(0,312.5,303.5)"/><rect x="308" y="317" width="9" height="9" transform="rotate(0,312.5,321.5)"/><rect x="308" y="335" width="9" height="9" transform="rotate(0,312.5,339.5)"/><rect x="308" y="344" width="9" height="9" transform="rotate(0,312.5,348.5)"/><path d="M 308 362v 9h 9v -4.5a 4.5 4.5, 0, 0, 0, -4.5 -4.5" transform="rotate(0,312.5,366.5)"/><rect x="308" y="371" width="9" height="9" transform="rotate(0,312.5,375.5)"/><rect x="308" y="380" width="9" height="9" transform="rotate(0,312.5,384.5)"/><path d="M 308 389v 9h 9v -4.5a 4.5 4.5, 0, 0, 0, -4.5 -4.5" transform="rotate(90,312.5,393.5)"/><path d="M 308 407v 9h 4.5a 4.5 4.5, 0, 0, 0, 0 -9" transform="rotate(0,312.5,411.5)"/><path d="M 308 434v 9h 4.5a 4.5 4.5, 0, 0, 0, 0 -9" transform="rotate(180,312.5,438.5)"/><rect x="308" y="461" width="9" height="9" transform="rotate(0,312.5,465.5)"/><path d="M 317 29v 9h 9v -4.5a 4.5 4.5, 0, 0, 0, -4.5 -4.5" transform="rotate(0,321.5,33.5)"/><path d="M 317 38v 9h 4.5a 4.5 4.5, 0, 0, 0, 0 -9" transform="rotate(90,321.5,42.5)"/><rect x="317" y="56" width="9" height="9" transform="rotate(0,321.5,60.5)"/><rect x="317" y="65" width="9" height="9" transform="rotate(0,321.5,69.5)"/><rect x="317" y="74" width="9" height="9" transform="rotate(0,321.5,78.5)"/><rect x="317" y="83" width="9" height="9" transform="rotate(0,321.5,87.5)"/><rect x="317" y="92" width="9" height="9" transform="rotate(0,321.5,96.5)"/><rect x="317" y="101" width="9" height="9" transform="rotate(0,321.5,105.5)"/><rect x="317" y="110" width="9" height="9" transform="rotate(0,321.5,114.5)"/><circle cx="321.5" cy="150.5" r="4.5" transform="rotate(0,321.5,150.5)"/><path d="M 317 218v 9h 9v -4.5a 4.5 4.5, 0, 0, 0, -4.5 -4.5" transform="rotate(-90,321.5,222.5)"/><path d="M 317 227v 9h 9v -4.5a 4.5 4.5, 0, 0, 0, -4.5 -4.5" transform="rotate(90,321.5,231.5)"/><path d="M 317 254v 9h 4.5a 4.5 4.5, 0, 0, 0, 0 -9" transform="rotate(0,321.5,258.5)"/><path d="M 317 272v 9h 4.5a 4.5 4.5, 0, 0, 0, 0 -9" transform="rotate(180,321.5,276.5)"/><path d="M 317 290v 9h 9v -4.5a 4.5 4.5, 0, 0, 0, -4.5 -4.5" transform="rotate(-90,321.5,294.5)"/><rect x="317" y="299" width="9" height="9" transform="rotate(0,321.5,303.5)"/><rect x="317" y="317" width="9" height="9" transform="rotate(0,321.5,321.5)"/><rect x="317" y="326" width="9" height="9" transform="rotate(0,321.5,330.5)"/><rect x="317" y="335" width="9" height="9" transform="rotate(0,321.5,339.5)"/><rect x="317" y="344" width="9" height="9" transform="rotate(0,321.5,348.5)"/><path d="M 317 353v 9h 4.5a 4.5 4.5, 0, 0, 0, 0 -9" transform="rotate(90,321.5,357.5)"/><circle cx="321.5" cy="402.5" r="4.5" transform="rotate(0,321.5,402.5)"/><path d="M 317 416v 9h 9v -4.5a 4.5 4.5, 0, 0, 0, -4.5 -4.5" transform="rotate(-90,321.5,420.5)"/><rect x="317" y="425" width="9" height="9" transform="rotate(0,321.5,429.5)"/><path d="M 317 434v 9h 9v -4.5a 4.5 4.5, 0, 0, 0, -4.5 -4.5" transform="rotate(90,321.5,438.5)"/><path d="M 317 461v 9h 4.5a 4.5 4.5, 0, 0, 0, 0 -9" transform="rotate(0,321.5,465.5)"/><path d="M 326 47v 9h 4.5a 4.5 4.5, 0, 0, 0, 0 -9" transform="rotate(-90,330.5,51.5)"/><rect x="326" y="56" width="9" height="9" transform="rotate(0,330.5,60.5)"/><rect x="326" y="65" width="9" height="9" transform="rotate(0,330.5,69.5)"/><rect x="326" y="74" width="9" height="9" transform="rotate(0,330.5,78.5)"/><rect x="326" y="92" width="9" height="9" transform="rotate(0,330.5,96.5)"/><path d="M 326 110v 9h 4.5a 4.5 4.5, 0, 0, 0, 0 -9" transform="rotate(0,330.5,114.5)"/><path d="M 326 137v 9h 4.5a 4.5 4.5, 0, 0, 0, 0 -9" transform="rotate(180,330.5,141.5)"/><circle cx="330.5" cy="168.5" r="4.5" transform="rotate(0,330.5,168.5)"/><path d="M 326 182v 9h 9v -4.5a 4.5 4.5, 0, 0, 0, -4.5 -4.5" transform="rotate(-90,330.5,186.5)"/><path d="M 326 191v 9h 4.5a 4.5 4.5, 0, 0, 0, 0 -9" transform="rotate(90,330.5,195.5)"/><path d="M 326 209v 9h 4.5a 4.5 4.5, 0, 0, 0, 0 -9" transform="rotate(-90,330.5,213.5)"/><rect x="326" y="218" width="9" height="9" transform="rotate(0,330.5,222.5)"/><path d="M 326 245v 9h 4.5a 4.5 4.5, 0, 0, 0, 0 -9" transform="rotate(180,330.5,249.5)"/><path d="M 326 263v 9h 4.5a 4.5 4.5, 0, 0, 0, 0 -9" transform="rotate(-90,330.5,267.5)"/><rect x="326" y="272" width="9" height="9" transform="rotate(0,330.5,276.5)"/><rect x="326" y="281" width="9" height="9" transform="rotate(0,330.5,285.5)"/><rect x="326" y="290" width="9" height="9" transform="rotate(0,330.5,294.5)"/><rect x="326" y="299" width="9" height="9" transform="rotate(0,330.5,303.5)"/><path d="M 326 317v 9h 4.5a 4.5 4.5, 0, 0, 0, 0 -9" transform="rotate(0,330.5,321.5)"/><circle cx="330.5" cy="366.5" r="4.5" transform="rotate(0,330.5,366.5)"/><circle cx="330.5" cy="384.5" r="4.5" transform="rotate(0,330.5,384.5)"/><path d="M 326 407v 9h 4.5a 4.5 4.5, 0, 0, 0, 0 -9" transform="rotate(-90,330.5,411.5)"/><rect x="326" y="416" width="9" height="9" transform="rotate(0,330.5,420.5)"/><path d="M 326 443v 9h 4.5a 4.5 4.5, 0, 0, 0, 0 -9" transform="rotate(180,330.5,447.5)"/><circle cx="339.5" cy="33.5" r="4.5" transform="rotate(0,339.5,33.5)"/><rect x="335" y="56" width="9" height="9" transform="rotate(0,339.5,60.5)"/><rect x="335" y="65" width="9" height="9" transform="rotate(0,339.5,69.5)"/><rect x="335" y="74" width="9" height="9" transform="rotate(0,339.5,78.5)"/><rect x="335" y="83" width="9" height="9" transform="rotate(0,339.5,87.5)"/><rect x="335" y="92" width="9" height="9" transform="rotate(0,339.5,96.5)"/><path d="M 335 101v 9h 4.5a 4.5 4.5, 0, 0, 0, 0 -9" transform="rotate(90,339.5,105.5)"/><circle cx="339.5" cy="123.5" r="4.5" transform="rotate(0,339.5,123.5)"/><path d="M 335 137v 9h 9v -4.5a 4.5 4.5, 0, 0, 0, -4.5 -4.5" transform="rotate(0,339.5,141.5)"/><rect x="335" y="146" width="9" height="9" transform="rotate(0,339.5,150.5)"/><path d="M 335 155v 9h 9v -4.5a 4.5 4.5, 0, 0, 0, -4.5 -4.5" transform="rotate(180,339.5,159.5)"/><path d="M 335 173v 9h 9v -4.5a 4.5 4.5, 0, 0, 0, -4.5 -4.5" transform="rotate(-90,339.5,177.5)"/><path d="M 335 182v 9h 9v -4.5a 4.5 4.5, 0, 0, 0, -4.5 -4.5" transform="rotate(90,339.5,186.5)"/><path d="M 335 218v 9h 4.5a 4.5 4.5, 0, 0, 0, 0 -9" transform="rotate(0,339.5,222.5)"/><path d="M 335 236v 9h 9v -4.5a 4.5 4.5, 0, 0, 0, -4.5 -4.5" transform="rotate(-90,339.5,240.5)"/><rect x="335" y="245" width="9" height="9" transform="rotate(0,339.5,249.5)"/><path d="M 335 272v 9h 9v -4.5a 4.5 4.5, 0, 0, 0, -4.5 -4.5" transform="rotate(0,339.5,276.5)"/><rect x="335" y="281" width="9" height="9" transform="rotate(0,339.5,285.5)"/><rect x="335" y="290" width="9" height="9" transform="rotate(0,339.5,294.5)"/><rect x="335" y="299" width="9" height="9" transform="rotate(0,339.5,303.5)"/><path d="M 335 308v 9h 9v -4.5a 4.5 4.5, 0, 0, 0, -4.5 -4.5" transform="rotate(180,339.5,312.5)"/><path d="M 335 353v 9h 4.5a 4.5 4.5, 0, 0, 0, 0 -9" transform="rotate(180,339.5,357.5)"/><circle cx="339.5" cy="375.5" r="4.5" transform="rotate(0,339.5,375.5)"/><path d="M 335 389v 9h 4.5a 4.5 4.5, 0, 0, 0, 0 -9" transform="rotate(180,339.5,393.5)"/><path d="M 335 416v 9h 4.5a 4.5 4.5, 0, 0, 0, 0 -9" transform="rotate(0,339.5,420.5)"/><rect x="335" y="443" width="9" height="9" transform="rotate(0,339.5,447.5)"/><circle cx="348.5" cy="42.5" r="4.5" transform="rotate(0,348.5,42.5)"/><path d="M 344 56v 9h 9v -4.5a 4.5 4.5, 0, 0, 0, -4.5 -4.5" transform="rotate(0,348.5,60.5)"/><path d="M 344 65v 9h 9v -4.5a 4.5 4.5, 0, 0, 0, -4.5 -4.5" transform="rotate(90,348.5,69.5)"/><circle cx="348.5" cy="114.5" r="4.5" transform="rotate(0,348.5,114.5)"/><circle cx="348.5" cy="132.5" r="4.5" transform="rotate(0,348.5,132.5)"/><path d="M 344 155v 9h 9v -4.5a 4.5 4.5, 0, 0, 0, -4.5 -4.5" transform="rotate(0,348.5,159.5)"/><rect x="344" y="164" width="9" height="9" transform="rotate(0,348.5,168.5)"/><rect x="344" y="173" width="9" height="9" transform="rotate(0,348.5,177.5)"/><path d="M 344 191v 9h 4.5a 4.5 4.5, 0, 0, 0, 0 -9" transform="rotate(180,348.5,195.5)"/><circle cx="348.5" cy="213.5" r="4.5" transform="rotate(0,348.5,213.5)"/><path d="M 344 236v 9h 9v -4.5a 4.5 4.5, 0, 0, 0, -4.5 -4.5" transform="rotate(0,348.5,240.5)"/><rect x="344" y="245" width="9" height="9" transform="rotate(0,348.5,249.5)"/><rect x="344" y="290" width="9" height="9" transform="rotate(0,348.5,294.5)"/><rect x="344" y="299" width="9" height="9" transform="rotate(0,348.5,303.5)"/><rect x="344" y="308" width="9" height="9" transform="rotate(0,348.5,312.5)"/><rect x="344" y="317" width="9" height="9" transform="rotate(0,348.5,321.5)"/><rect x="344" y="326" width="9" height="9" transform="rotate(0,348.5,330.5)"/><rect x="344" y="335" width="9" height="9" transform="rotate(0,348.5,339.5)"/><rect x="344" y="344" width="9" height="9" transform="rotate(0,348.5,348.5)"/><rect x="344" y="353" width="9" height="9" transform="rotate(0,348.5,357.5)"/><path d="M 344 362v 9h 4.5a 4.5 4.5, 0, 0, 0, 0 -9" transform="rotate(90,348.5,366.5)"/><path d="M 344 380v 9h 9v -4.5a 4.5 4.5, 0, 0, 0, -4.5 -4.5" transform="rotate(-90,348.5,384.5)"/><rect x="344" y="389" width="9" height="9" transform="rotate(0,348.5,393.5)"/><path d="M 344 407v 9h 4.5a 4.5 4.5, 0, 0, 0, 0 -9" transform="rotate(180,348.5,411.5)"/><path d="M 344 425v 9h 9v -4.5a 4.5 4.5, 0, 0, 0, -4.5 -4.5" transform="rotate(-90,348.5,429.5)"/><rect x="344" y="434" width="9" height="9" transform="rotate(0,348.5,438.5)"/><rect x="344" y="443" width="9" height="9" transform="rotate(0,348.5,447.5)"/><path d="M 344 452v 9h 4.5a 4.5 4.5, 0, 0, 0, 0 -9" transform="rotate(90,348.5,456.5)"/><path d="M 353 47v 9h 4.5a 4.5 4.5, 0, 0, 0, 0 -9" transform="rotate(180,357.5,51.5)"/><path d="M 353 83v 9h 4.5a 4.5 4.5, 0, 0, 0, 0 -9" transform="rotate(-90,357.5,87.5)"/><path d="M 353 92v 9h 4.5a 4.5 4.5, 0, 0, 0, 0 -9" transform="rotate(90,357.5,96.5)"/><path d="M 353 137v 9h 9v -4.5a 4.5 4.5, 0, 0, 0, -4.5 -4.5" transform="rotate(-90,357.5,141.5)"/><path d="M 353 146v 9h 4.5a 4.5 4.5, 0, 0, 0, 0 -9" transform="rotate(90,357.5,150.5)"/><path d="M 353 173v 9h 4.5a 4.5 4.5, 0, 0, 0, 0 -9" transform="rotate(0,357.5,177.5)"/><path d="M 353 191v 9h 4.5a 4.5 4.5, 0, 0, 0, 0 -9" transform="rotate(0,357.5,195.5)"/><path d="M 353 245v 9h 9v -4.5a 4.5 4.5, 0, 0, 0, -4.5 -4.5" transform="rotate(0,357.5,249.5)"/><rect x="353" y="254" width="9" height="9" transform="rotate(0,357.5,258.5)"/><rect x="353" y="263" width="9" height="9" transform="rotate(0,357.5,267.5)"/><path d="M 353 272v 9h 9v -4.5a 4.5 4.5, 0, 0, 0, -4.5 -4.5" transform="rotate(180,357.5,276.5)"/><path d="M 353 290v 9h 4.5a 4.5 4.5, 0, 0, 0, 0 -9" transform="rotate(0,357.5,294.5)"/><rect x="353" y="326" width="9" height="9" transform="rotate(0,357.5,330.5)"/><rect x="353" y="335" width="9" height="9" transform="rotate(0,357.5,339.5)"/><rect x="353" y="344" width="9" height="9" transform="rotate(0,357.5,348.5)"/><rect x="353" y="353" width="9" height="9" transform="rotate(0,357.5,357.5)"/><path d="M 353 371v 9h 9v -4.5a 4.5 4.5, 0, 0, 0, -4.5 -4.5" transform="rotate(-90,357.5,375.5)"/><rect x="353" y="380" width="9" height="9" transform="rotate(0,357.5,384.5)"/><path d="M 353 389v 9h 9v -4.5a 4.5 4.5, 0, 0, 0, -4.5 -4.5" transform="rotate(90,357.5,393.5)"/><path d="M 353 407v 9h 9v -4.5a 4.5 4.5, 0, 0, 0, -4.5 -4.5" transform="rotate(0,357.5,411.5)"/><rect x="353" y="416" width="9" height="9" transform="rotate(0,357.5,420.5)"/><rect x="353" y="425" width="9" height="9" transform="rotate(0,357.5,429.5)"/><rect x="353" y="434" width="9" height="9" transform="rotate(0,357.5,438.5)"/><rect x="353" y="443" width="9" height="9" transform="rotate(0,357.5,447.5)"/><path d="M 353 461v 9h 4.5a 4.5 4.5, 0, 0, 0, 0 -9" transform="rotate(180,357.5,465.5)"/><path d="M 362 29v 9h 4.5a 4.5 4.5, 0, 0, 0, 0 -9" transform="rotate(-90,366.5,33.5)"/><rect x="362" y="38" width="9" height="9" transform="rotate(0,366.5,42.5)"/><path d="M 362 47v 9h 9v -4.5a 4.5 4.5, 0, 0, 0, -4.5 -4.5" transform="rotate(90,366.5,51.5)"/><path d="M 362 65v 9h 4.5a 4.5 4.5, 0, 0, 0, 0 -9" transform="rotate(-90,366.5,69.5)"/><path d="M 362 74v 9h 9v -4.5a 4.5 4.5, 0, 0, 0, -4.5 -4.5" transform="rotate(180,366.5,78.5)"/><path d="M 362 119v 9h 4.5a 4.5 4.5, 0, 0, 0, 0 -9" transform="rotate(180,366.5,123.5)"/><path d="M 362 137v 9h 4.5a 4.5 4.5, 0, 0, 0, 0 -9" transform="rotate(0,366.5,141.5)"/><path d="M 362 218v 9h 4.5a 4.5 4.5, 0, 0, 0, 0 -9" transform="rotate(180,366.5,222.5)"/><path d="M 362 263v 9h 9v -4.5a 4.5 4.5, 0, 0, 0, -4.5 -4.5" transform="rotate(0,366.5,267.5)"/><rect x="362" y="272" width="9" height="9" transform="rotate(0,366.5,276.5)"/><path d="M 362 317v 9h 4.5a 4.5 4.5, 0, 0, 0, 0 -9" transform="rotate(-90,366.5,321.5)"/><rect x="362" y="326" width="9" height="9" transform="rotate(0,366.5,330.5)"/><rect x="362" y="353" width="9" height="9" transform="rotate(0,366.5,357.5)"/><rect x="362" y="362" width="9" height="9" transform="rotate(0,366.5,366.5)"/><rect x="362" y="371" width="9" height="9" transform="rotate(0,366.5,375.5)"/><path d="M 362 380v 9h 9v -4.5a 4.5 4.5, 0, 0, 0, -4.5 -4.5" transform="rotate(90,366.5,384.5)"/><path d="M 362 398v 9h 4.5a 4.5 4.5, 0, 0, 0, 0 -9" transform="rotate(180,366.5,402.5)"/><rect x="362" y="416" width="9" height="9" transform="rotate(0,366.5,420.5)"/><rect x="362" y="425" width="9" height="9" transform="rotate(0,366.5,429.5)"/><rect x="362" y="434" width="9" height="9" transform="rotate(0,366.5,438.5)"/><rect x="362" y="443" width="9" height="9" transform="rotate(0,366.5,447.5)"/><rect x="362" y="452" width="9" height="9" transform="rotate(0,366.5,456.5)"/><path d="M 362 461v 9h 9v -4.5a 4.5 4.5, 0, 0, 0, -4.5 -4.5" transform="rotate(90,366.5,465.5)"/><rect x="371" y="38" width="9" height="9" transform="rotate(0,375.5,42.5)"/><path d="M 371 74v 9h 9v -4.5a 4.5 4.5, 0, 0, 0, -4.5 -4.5" transform="rotate(0,375.5,78.5)"/><rect x="371" y="83" width="9" height="9" transform="rotate(0,375.5,87.5)"/><path d="M 371 92v 9h 9v -4.5a 4.5 4.5, 0, 0, 0, -4.5 -4.5" transform="rotate(180,375.5,96.5)"/><rect x="371" y="119" width="9" height="9" transform="rotate(0,375.5,123.5)"/><path d="M 371 155v 9h 9v -4.5a 4.5 4.5, 0, 0, 0, -4.5 -4.5" transform="rotate(-90,375.5,159.5)"/><path d="M 371 164v 9h 4.5a 4.5 4.5, 0, 0, 0, 0 -9" transform="rotate(90,375.5,168.5)"/><path d="M 371 209v 9h 9v -4.5a 4.5 4.5, 0, 0, 0, -4.5 -4.5" transform="rotate(-90,375.5,213.5)"/><path d="M 371 218v 9h 9v -4.5a 4.5 4.5, 0, 0, 0, -4.5 -4.5" transform="rotate(90,375.5,222.5)"/><path d="M 371 236v 9h 9v -4.5a 4.5 4.5, 0, 0, 0, -4.5 -4.5" transform="rotate(-90,375.5,240.5)"/><path d="M 371 245v 9h 9v -4.5a 4.5 4.5, 0, 0, 0, -4.5 -4.5" transform="rotate(180,375.5,249.5)"/><rect x="371" y="272" width="9" height="9" transform="rotate(0,375.5,276.5)"/><path d="M 371 299v 9h 4.5a 4.5 4.5, 0, 0, 0, 0 -9" transform="rotate(180,375.5,303.5)"/><rect x="371" y="326" width="9" height="9" transform="rotate(0,375.5,330.5)"/><path d="M 371 344v 9h 4.5a 4.5 4.5, 0, 0, 0, 0 -9" transform="rotate(-90,375.5,348.5)"/><rect x="371" y="353" width="9" height="9" transform="rotate(0,375.5,357.5)"/><rect x="371" y="362" width="9" height="9" transform="rotate(0,375.5,366.5)"/><rect x="371" y="371" width="9" height="9" transform="rotate(0,375.5,375.5)"/><path d="M 371 398v 9h 4.5a 4.5 4.5, 0, 0, 0, 0 -9" transform="rotate(0,375.5,402.5)"/><path d="M 371 416v 9h 9v -4.5a 4.5 4.5, 0, 0, 0, -4.5 -4.5" transform="rotate(0,375.5,420.5)"/><rect x="371" y="425" width="9" height="9" transform="rotate(0,375.5,429.5)"/><path d="M 371 434v 9h 9v -4.5a 4.5 4.5, 0, 0, 0, -4.5 -4.5" transform="rotate(90,375.5,438.5)"/><rect x="371" y="452" width="9" height="9" transform="rotate(0,375.5,456.5)"/><rect x="380" y="38" width="9" height="9" transform="rotate(0,384.5,42.5)"/><rect x="380" y="47" width="9" height="9" transform="rotate(0,384.5,51.5)"/><path d="M 380 56v 9h 4.5a 4.5 4.5, 0, 0, 0, 0 -9" transform="rotate(90,384.5,60.5)"/><path d="M 380 92v 9h 4.5a 4.5 4.5, 0, 0, 0, 0 -9" transform="rotate(0,384.5,96.5)"/><rect x="380" y="119" width="9" height="9" transform="rotate(0,384.5,123.5)"/><path d="M 380 137v 9h 4.5a 4.5 4.5, 0, 0, 0, 0 -9" transform="rotate(-90,384.5,141.5)"/><rect x="380" y="146" width="9" height="9" transform="rotate(0,384.5,150.5)"/><path d="M 380 155v 9h 9v -4.5a 4.5 4.5, 0, 0, 0, -4.5 -4.5" transform="rotate(90,384.5,159.5)"/><path d="M 380 191v 9h 9v -4.5a 4.5 4.5, 0, 0, 0, -4.5 -4.5" transform="rotate(-90,384.5,195.5)"/><rect x="380" y="200" width="9" height="9" transform="rotate(0,384.5,204.5)"/><rect x="380" y="209" width="9" height="9" transform="rotate(0,384.5,213.5)"/><path d="M 380 227v 9h 9v -4.5a 4.5 4.5, 0, 0, 0, -4.5 -4.5" transform="rotate(-90,384.5,231.5)"/><rect x="380" y="236" width="9" height="9" transform="rotate(0,384.5,240.5)"/><rect x="380" y="245" width="9" height="9" transform="rotate(0,384.5,249.5)"/><path d="M 380 254v 9h 9v -4.5a 4.5 4.5, 0, 0, 0, -4.5 -4.5" transform="rotate(180,384.5,258.5)"/><rect x="380" y="272" width="9" height="9" transform="rotate(0,384.5,276.5)"/><path d="M 380 281v 9h 4.5a 4.5 4.5, 0, 0, 0, 0 -9" transform="rotate(90,384.5,285.5)"/><path d="M 380 299v 9h 4.5a 4.5 4.5, 0, 0, 0, 0 -9" transform="rotate(0,384.5,303.5)"/><path d="M 380 317v 9h 9v -4.5a 4.5 4.5, 0, 0, 0, -4.5 -4.5" transform="rotate(-90,384.5,321.5)"/><rect x="380" y="326" width="9" height="9" transform="rotate(0,384.5,330.5)"/><rect x="380" y="362" width="9" height="9" transform="rotate(0,384.5,366.5)"/><path d="M 380 371v 9h 9v -4.5a 4.5 4.5, 0, 0, 0, -4.5 -4.5" transform="rotate(90,384.5,375.5)"/><rect x="380" y="452" width="9" height="9" transform="rotate(0,384.5,456.5)"/><path d="M 389 29v 9h 4.5a 4.5 4.5, 0, 0, 0, 0 -9" transform="rotate(-90,393.5,33.5)"/><rect x="389" y="38" width="9" height="9" transform="rotate(0,393.5,42.5)"/><path d="M 389 47v 9h 9v -4.5a 4.5 4.5, 0, 0, 0, -4.5 -4.5" transform="rotate(90,393.5,51.5)"/><circle cx="393.5" cy="87.5" r="4.5" transform="rotate(0,393.5,87.5)"/><path d="M 389 110v 9h 4.5a 4.5 4.5, 0, 0, 0, 0 -9" transform="rotate(-90,393.5,114.5)"/><rect x="389" y="119" width="9" height="9" transform="rotate(0,393.5,123.5)"/><rect x="389" y="146" width="9" height="9" transform="rotate(0,393.5,150.5)"/><path d="M 389 182v 9h 9v -4.5a 4.5 4.5, 0, 0, 0, -4.5 -4.5" transform="rotate(-90,393.5,186.5)"/><path d="M 389 191v 9h 9v -4.5a 4.5 4.5, 0, 0, 0, -4.5 -4.5" transform="rotate(90,393.5,195.5)"/><rect x="389" y="209" width="9" height="9" transform="rotate(0,393.5,213.5)"/><rect x="389" y="227" width="9" height="9" transform="rotate(0,393.5,231.5)"/><rect x="389" y="236" width="9" height="9" transform="rotate(0,393.5,240.5)"/><rect x="389" y="245" width="9" height="9" transform="rotate(0,393.5,249.5)"/><rect x="389" y="254" width="9" height="9" transform="rotate(0,393.5,258.5)"/><rect x="389" y="263" width="9" height="9" transform="rotate(0,393.5,267.5)"/><rect x="389" y="272" width="9" height="9" transform="rotate(0,393.5,276.5)"/><path d="M 389 308v 9h 9v -4.5a 4.5 4.5, 0, 0, 0, -4.5 -4.5" transform="rotate(-90,393.5,312.5)"/><rect x="389" y="317" width="9" height="9" transform="rotate(0,393.5,321.5)"/><path d="M 389 326v 9h 9v -4.5a 4.5 4.5, 0, 0, 0, -4.5 -4.5" transform="rotate(90,393.5,330.5)"/><rect x="389" y="362" width="9" height="9" transform="rotate(0,393.5,366.5)"/><path d="M 389 389v 9h 9v -4.5a 4.5 4.5, 0, 0, 0, -4.5 -4.5" transform="rotate(-90,393.5,393.5)"/><rect x="389" y="398" width="9" height="9" transform="rotate(0,393.5,402.5)"/><rect x="389" y="407" width="9" height="9" transform="rotate(0,393.5,411.5)"/><rect x="389" y="416" width="9" height="9" transform="rotate(0,393.5,420.5)"/><path d="M 389 425v 9h 9v -4.5a 4.5 4.5, 0, 0, 0, -4.5 -4.5" transform="rotate(180,393.5,429.5)"/><path d="M 389 443v 9h 9v -4.5a 4.5 4.5, 0, 0, 0, -4.5 -4.5" transform="rotate(-90,393.5,447.5)"/><path d="M 389 452v 9h 9v -4.5a 4.5 4.5, 0, 0, 0, -4.5 -4.5" transform="rotate(90,393.5,456.5)"/><circle cx="402.5" cy="105.5" r="4.5" transform="rotate(0,402.5,105.5)"/><path d="M 398 119v 9h 4.5a 4.5 4.5, 0, 0, 0, 0 -9" transform="rotate(0,402.5,123.5)"/><path d="M 398 146v 9h 4.5a 4.5 4.5, 0, 0, 0, 0 -9" transform="rotate(0,402.5,150.5)"/><path d="M 398 173v 9h 4.5a 4.5 4.5, 0, 0, 0, 0 -9" transform="rotate(-90,402.5,177.5)"/><rect x="398" y="182" width="9" height="9" transform="rotate(0,402.5,186.5)"/><path d="M 398 200v 9h 4.5a 4.5 4.5, 0, 0, 0, 0 -9" transform="rotate(-90,402.5,204.5)"/><rect x="398" y="209" width="9" height="9" transform="rotate(0,402.5,213.5)"/><rect x="398" y="227" width="9" height="9" transform="rotate(0,402.5,231.5)"/><rect x="398" y="263" width="9" height="9" transform="rotate(0,402.5,267.5)"/><rect x="398" y="272" width="9" height="9" transform="rotate(0,402.5,276.5)"/><path d="M 398 308v 9h 4.5a 4.5 4.5, 0, 0, 0, 0 -9" transform="rotate(0,402.5,312.5)"/><path d="M 398 335v 9h 4.5a 4.5 4.5, 0, 0, 0, 0 -9" transform="rotate(-90,402.5,339.5)"/><rect x="398" y="344" width="9" height="9" transform="rotate(0,402.5,348.5)"/><rect x="398" y="353" width="9" height="9" transform="rotate(0,402.5,357.5)"/><path d="M 398 362v 9h 9v -4.5a 4.5 4.5, 0, 0, 0, -4.5 -4.5" transform="rotate(90,402.5,366.5)"/><path d="M 398 380v 9h 4.5a 4.5 4.5, 0, 0, 0, 0 -9" transform="rotate(-90,402.5,384.5)"/><rect x="398" y="389" width="9" height="9" transform="rotate(0,402.5,393.5)"/><rect x="398" y="425" width="9" height="9" transform="rotate(0,402.5,429.5)"/><rect x="398" y="434" width="9" height="9" transform="rotate(0,402.5,438.5)"/><path d="M 398 443v 9h 9v -4.5a 4.5 4.5, 0, 0, 0, -4.5 -4.5" transform="rotate(90,402.5,447.5)"/><path d="M 398 461v 9h 4.5a 4.5 4.5, 0, 0, 0, 0 -9" transform="rotate(180,402.5,465.5)"/><circle cx="411.5" cy="114.5" r="4.5" transform="rotate(0,411.5,114.5)"/><path d="M 407 128v 9h 9v -4.5a 4.5 4.5, 0, 0, 0, -4.5 -4.5" transform="rotate(-90,411.5,132.5)"/><path d="M 407 137v 9h 4.5a 4.5 4.5, 0, 0, 0, 0 -9" transform="rotate(90,411.5,141.5)"/><circle cx="411.5" cy="168.5" r="4.5" transform="rotate(0,411.5,168.5)"/><rect x="407" y="182" width="9" height="9" transform="rotate(0,411.5,186.5)"/><path d="M 407 209v 9h 4.5a 4.5 4.5, 0, 0, 0, 0 -9" transform="rotate(0,411.5,213.5)"/><rect x="407" y="227" width="9" height="9" transform="rotate(0,411.5,231.5)"/><circle cx="411.5" cy="249.5" r="4.5" transform="rotate(0,411.5,249.5)"/><rect x="407" y="263" width="9" height="9" transform="rotate(0,411.5,267.5)"/><path d="M 407 272v 9h 9v -4.5a 4.5 4.5, 0, 0, 0, -4.5 -4.5" transform="rotate(90,411.5,276.5)"/><path d="M 407 290v 9h 4.5a 4.5 4.5, 0, 0, 0, 0 -9" transform="rotate(-90,411.5,294.5)"/><path d="M 407 299v 9h 9v -4.5a 4.5 4.5, 0, 0, 0, -4.5 -4.5" transform="rotate(180,411.5,303.5)"/><rect x="407" y="353" width="9" height="9" transform="rotate(0,411.5,357.5)"/><rect x="407" y="389" width="9" height="9" transform="rotate(0,411.5,393.5)"/><circle cx="411.5" cy="411.5" r="4.5" transform="rotate(0,411.5,411.5)"/><rect x="407" y="425" width="9" height="9" transform="rotate(0,411.5,429.5)"/><rect x="407" y="434" width="9" height="9" transform="rotate(0,411.5,438.5)"/><path d="M 407 452v 9h 4.5a 4.5 4.5, 0, 0, 0, 0 -9" transform="rotate(-90,411.5,456.5)"/><rect x="407" y="461" width="9" height="9" transform="rotate(0,411.5,465.5)"/><circle cx="420.5" cy="105.5" r="4.5" transform="rotate(0,420.5,105.5)"/><path d="M 416 128v 9h 4.5a 4.5 4.5, 0, 0, 0, 0 -9" transform="rotate(0,420.5,132.5)"/><circle cx="420.5" cy="150.5" r="4.5" transform="rotate(0,420.5,150.5)"/><path d="M 416 173v 9h 9v -4.5a 4.5 4.5, 0, 0, 0, -4.5 -4.5" transform="rotate(-90,420.5,177.5)"/><rect x="416" y="182" width="9" height="9" transform="rotate(0,420.5,186.5)"/><path d="M 416 191v 9h 4.5a 4.5 4.5, 0, 0, 0, 0 -9" transform="rotate(90,420.5,195.5)"/><path d="M 416 218v 9h 9v -4.5a 4.5 4.5, 0, 0, 0, -4.5 -4.5" transform="rotate(-90,420.5,222.5)"/><rect x="416" y="227" width="9" height="9" transform="rotate(0,420.5,231.5)"/><rect x="416" y="263" width="9" height="9" transform="rotate(0,420.5,267.5)"/><path d="M 416 281v 9h 4.5a 4.5 4.5, 0, 0, 0, 0 -9" transform="rotate(180,420.5,285.5)"/><rect x="416" y="299" width="9" height="9" transform="rotate(0,420.5,303.5)"/><path d="M 416 317v 9h 4.5a 4.5 4.5, 0, 0, 0, 0 -9" transform="rotate(-90,420.5,321.5)"/><rect x="416" y="326" width="9" height="9" transform="rotate(0,420.5,330.5)"/><rect x="416" y="335" width="9" height="9" transform="rotate(0,420.5,339.5)"/><rect x="416" y="344" width="9" height="9" transform="rotate(0,420.5,348.5)"/><rect x="416" y="353" width="9" height="9" transform="rotate(0,420.5,357.5)"/><path d="M 416 362v 9h 4.5a 4.5 4.5, 0, 0, 0, 0 -9" transform="rotate(90,420.5,366.5)"/><rect x="416" y="389" width="9" height="9" transform="rotate(0,420.5,393.5)"/><rect x="416" y="425" width="9" height="9" transform="rotate(0,420.5,429.5)"/><rect x="416" y="434" width="9" height="9" transform="rotate(0,420.5,438.5)"/><rect x="416" y="461" width="9" height="9" transform="rotate(0,420.5,465.5)"/><circle cx="429.5" cy="123.5" r="4.5" transform="rotate(0,429.5,123.5)"/><path d="M 425 173v 9h 9v -4.5a 4.5 4.5, 0, 0, 0, -4.5 -4.5" transform="rotate(0,429.5,177.5)"/><path d="M 425 182v 9h 9v -4.5a 4.5 4.5, 0, 0, 0, -4.5 -4.5" transform="rotate(90,429.5,186.5)"/><path d="M 425 200v 9h 4.5a 4.5 4.5, 0, 0, 0, 0 -9" transform="rotate(180,429.5,204.5)"/><path d="M 425 218v 9h 9v -4.5a 4.5 4.5, 0, 0, 0, -4.5 -4.5" transform="rotate(0,429.5,222.5)"/><rect x="425" y="227" width="9" height="9" transform="rotate(0,429.5,231.5)"/><rect x="425" y="236" width="9" height="9" transform="rotate(0,429.5,240.5)"/><rect x="425" y="245" width="9" height="9" transform="rotate(0,429.5,249.5)"/><rect x="425" y="254" width="9" height="9" transform="rotate(0,429.5,258.5)"/><rect x="425" y="263" width="9" height="9" transform="rotate(0,429.5,267.5)"/><rect x="425" y="272" width="9" height="9" transform="rotate(0,429.5,276.5)"/><path d="M 425 281v 9h 9v -4.5a 4.5 4.5, 0, 0, 0, -4.5 -4.5" transform="rotate(90,429.5,285.5)"/><rect x="425" y="299" width="9" height="9" transform="rotate(0,429.5,303.5)"/><path d="M 425 335v 9h 9v -4.5a 4.5 4.5, 0, 0, 0, -4.5 -4.5" transform="rotate(0,429.5,339.5)"/><path d="M 425 344v 9h 9v -4.5a 4.5 4.5, 0, 0, 0, -4.5 -4.5" transform="rotate(90,429.5,348.5)"/><circle cx="429.5" cy="375.5" r="4.5" transform="rotate(0,429.5,375.5)"/><rect x="425" y="389" width="9" height="9" transform="rotate(0,429.5,393.5)"/><rect x="425" y="398" width="9" height="9" transform="rotate(0,429.5,402.5)"/><rect x="425" y="407" width="9" height="9" transform="rotate(0,429.5,411.5)"/><rect x="425" y="416" width="9" height="9" transform="rotate(0,429.5,420.5)"/><rect x="425" y="425" width="9" height="9" transform="rotate(0,429.5,429.5)"/><rect x="425" y="434" width="9" height="9" transform="rotate(0,429.5,438.5)"/><path d="M 425 452v 9h 4.5a 4.5 4.5, 0, 0, 0, 0 -9" transform="rotate(-90,429.5,456.5)"/><path d="M 425 461v 9h 9v -4.5a 4.5 4.5, 0, 0, 0, -4.5 -4.5" transform="rotate(90,429.5,465.5)"/><path d="M 434 101v 9h 9v -4.5a 4.5 4.5, 0, 0, 0, -4.5 -4.5" transform="rotate(-90,438.5,105.5)"/><path d="M 434 110v 9h 4.5a 4.5 4.5, 0, 0, 0, 0 -9" transform="rotate(90,438.5,114.5)"/><path d="M 434 128v 9h 9v -4.5a 4.5 4.5, 0, 0, 0, -4.5 -4.5" transform="rotate(-90,438.5,132.5)"/><rect x="434" y="137" width="9" height="9" transform="rotate(0,438.5,141.5)"/><path d="M 434 146v 9h 9v -4.5a 4.5 4.5, 0, 0, 0, -4.5 -4.5" transform="rotate(180,438.5,150.5)"/><rect x="434" y="200" width="9" height="9" transform="rotate(0,438.5,204.5)"/><path d="M 434 227v 9h 4.5a 4.5 4.5, 0, 0, 0, 0 -9" transform="rotate(0,438.5,231.5)"/><rect x="434" y="254" width="9" height="9" transform="rotate(0,438.5,258.5)"/><path d="M 434 290v 9h 9v -4.5a 4.5 4.5, 0, 0, 0, -4.5 -4.5" transform="rotate(-90,438.5,294.5)"/><rect x="434" y="299" width="9" height="9" transform="rotate(0,438.5,303.5)"/><rect x="434" y="308" width="9" height="9" transform="rotate(0,438.5,312.5)"/><path d="M 434 317v 9h 4.5a 4.5 4.5, 0, 0, 0, 0 -9" transform="rotate(90,438.5,321.5)"/><circle cx="438.5" cy="366.5" r="4.5" transform="rotate(0,438.5,366.5)"/><path d="M 434 380v 9h 9v -4.5a 4.5 4.5, 0, 0, 0, -4.5 -4.5" transform="rotate(-90,438.5,384.5)"/><rect x="434" y="389" width="9" height="9" transform="rotate(0,438.5,393.5)"/><path d="M 434 398v 9h 9v -4.5a 4.5 4.5, 0, 0, 0, -4.5 -4.5" transform="rotate(90,438.5,402.5)"/><rect x="434" y="425" width="9" height="9" transform="rotate(0,438.5,429.5)"/><rect x="434" y="434" width="9" height="9" transform="rotate(0,438.5,438.5)"/><path d="M 434 443v 9h 4.5a 4.5 4.5, 0, 0, 0, 0 -9" transform="rotate(90,438.5,447.5)"/><rect x="443" y="101" width="9" height="9" transform="rotate(0,447.5,105.5)"/><rect x="443" y="128" width="9" height="9" transform="rotate(0,447.5,132.5)"/><rect x="443" y="137" width="9" height="9" transform="rotate(0,447.5,141.5)"/><path d="M 443 146v 9h 9v -4.5a 4.5 4.5, 0, 0, 0, -4.5 -4.5" transform="rotate(90,447.5,150.5)"/><path d="M 443 173v 9h 9v -4.5a 4.5 4.5, 0, 0, 0, -4.5 -4.5" transform="rotate(-90,447.5,177.5)"/><path d="M 443 182v 9h 9v -4.5a 4.5 4.5, 0, 0, 0, -4.5 -4.5" transform="rotate(180,447.5,186.5)"/><rect x="443" y="200" width="9" height="9" transform="rotate(0,447.5,204.5)"/><path d="M 443 209v 9h 4.5a 4.5 4.5, 0, 0, 0, 0 -9" transform="rotate(90,447.5,213.5)"/><path d="M 443 254v 9h 4.5a 4.5 4.5, 0, 0, 0, 0 -9" transform="rotate(0,447.5,258.5)"/><path d="M 443 272v 9h 4.5a 4.5 4.5, 0, 0, 0, 0 -9" transform="rotate(-90,447.5,276.5)"/><rect x="443" y="281" width="9" height="9" transform="rotate(0,447.5,285.5)"/><rect x="443" y="290" width="9" height="9" transform="rotate(0,447.5,294.5)"/><rect x="443" y="299" width="9" height="9" transform="rotate(0,447.5,303.5)"/><rect x="443" y="308" width="9" height="9" transform="rotate(0,447.5,312.5)"/><circle cx="447.5" cy="339.5" r="4.5" transform="rotate(0,447.5,339.5)"/><path d="M 443 380v 9h 4.5a 4.5 4.5, 0, 0, 0, 0 -9" transform="rotate(0,447.5,384.5)"/><path d="M 443 416v 9h 4.5a 4.5 4.5, 0, 0, 0, 0 -9" transform="rotate(-90,447.5,420.5)"/><rect x="443" y="425" width="9" height="9" transform="rotate(0,447.5,429.5)"/><rect x="443" y="434" width="9" height="9" transform="rotate(0,447.5,438.5)"/><path d="M 452 101v 9h 4.5a 4.5 4.5, 0, 0, 0, 0 -9" transform="rotate(0,456.5,105.5)"/><path d="M 452 119v 9h 4.5a 4.5 4.5, 0, 0, 0, 0 -9" transform="rotate(-90,456.5,123.5)"/><rect x="452" y="128" width="9" height="9" transform="rotate(0,456.5,132.5)"/><path d="M 452 137v 9h 9v -4.5a 4.5 4.5, 0, 0, 0, -4.5 -4.5" transform="rotate(90,456.5,141.5)"/><path d="M 452 164v 9h 4.5a 4.5 4.5, 0, 0, 0, 0 -9" transform="rotate(-90,456.5,168.5)"/><rect x="452" y="173" width="9" height="9" transform="rotate(0,456.5,177.5)"/><rect x="452" y="182" width="9" height="9" transform="rotate(0,456.5,186.5)"/><path d="M 452 200v 9h 4.5a 4.5 4.5, 0, 0, 0, 0 -9" transform="rotate(0,456.5,204.5)"/><path d="M 452 218v 9h 9v -4.5a 4.5 4.5, 0, 0, 0, -4.5 -4.5" transform="rotate(-90,456.5,222.5)"/><path d="M 452 227v 9h 9v -4.5a 4.5 4.5, 0, 0, 0, -4.5 -4.5" transform="rotate(180,456.5,231.5)"/><circle cx="456.5" cy="267.5" r="4.5" transform="rotate(0,456.5,267.5)"/><rect x="452" y="290" width="9" height="9" transform="rotate(0,456.5,294.5)"/><rect x="452" y="299" width="9" height="9" transform="rotate(0,456.5,303.5)"/><rect x="452" y="308" width="9" height="9" transform="rotate(0,456.5,312.5)"/><rect x="452" y="317" width="9" height="9" transform="rotate(0,456.5,321.5)"/><path d="M 452 326v 9h 4.5a 4.5 4.5, 0, 0, 0, 0 -9" transform="rotate(90,456.5,330.5)"/><path d="M 452 353v 9h 4.5a 4.5 4.5, 0, 0, 0, 0 -9" transform="rotate(180,456.5,357.5)"/><path d="M 452 371v 9h 4.5a 4.5 4.5, 0, 0, 0, 0 -9" transform="rotate(180,456.5,375.5)"/><circle cx="456.5" cy="402.5" r="4.5" transform="rotate(0,456.5,402.5)"/><rect x="452" y="434" width="9" height="9" transform="rotate(0,456.5,438.5)"/><path d="M 452 443v 9h 9v -4.5a 4.5 4.5, 0, 0, 0, -4.5 -4.5" transform="rotate(180,456.5,447.5)"/><circle cx="465.5" cy="114.5" r="4.5" transform="rotate(0,465.5,114.5)"/><path d="M 461 128v 9h 4.5a 4.5 4.5, 0, 0, 0, 0 -9" transform="rotate(0,465.5,132.5)"/><circle cx="465.5" cy="159.5" r="4.5" transform="rotate(0,465.5,159.5)"/><path d="M 461 173v 9h 9v -4.5a 4.5 4.5, 0, 0, 0, -4.5 -4.5" transform="rotate(0,465.5,177.5)"/><rect x="461" y="182" width="9" height="9" transform="rotate(0,465.5,186.5)"/><path d="M 461 191v 9h 4.5a 4.5 4.5, 0, 0, 0, 0 -9" transform="rotate(90,465.5,195.5)"/><path d="M 461 218v 9h 9v -4.5a 4.5 4.5, 0, 0, 0, -4.5 -4.5" transform="rotate(0,465.5,222.5)"/><rect x="461" y="227" width="9" height="9" transform="rotate(0,465.5,231.5)"/><path d="M 461 236v 9h 4.5a 4.5 4.5, 0, 0, 0, 0 -9" transform="rotate(90,465.5,240.5)"/><circle cx="465.5" cy="258.5" r="4.5" transform="rotate(0,465.5,258.5)"/><path d="M 461 290v 9h 4.5a 4.5 4.5, 0, 0, 0, 0 -9" transform="rotate(0,465.5,294.5)"/><path d="M 461 308v 9h 4.5a 4.5 4.5, 0, 0, 0, 0 -9" transform="rotate(0,465.5,312.5)"/><path d="M 461 335v 9h 4.5a 4.5 4.5, 0, 0, 0, 0 -9" transform="rotate(-90,465.5,339.5)"/><rect x="461" y="344" width="9" height="9" transform="rotate(0,465.5,348.5)"/><path d="M 461 353v 9h 9v -4.5a 4.5 4.5, 0, 0, 0, -4.5 -4.5" transform="rotate(90,465.5,357.5)"/><path d="M 461 371v 9h 4.5a 4.5 4.5, 0, 0, 0, 0 -9" transform="rotate(0,465.5,375.5)"/><circle cx="465.5" cy="393.5" r="4.5" transform="rotate(0,465.5,393.5)"/><circle cx="465.5" cy="420.5" r="4.5" transform="rotate(0,465.5,420.5)"/><path d="M 461 434v 9h 9v -4.5a 4.5 4.5, 0, 0, 0, -4.5 -4.5" transform="rotate(0,465.5,438.5)"/><rect x="461" y="443" width="9" height="9" transform="rotate(0,465.5,447.5)"/><rect x="461" y="452" width="9" height="9" transform="rotate(0,465.5,456.5)"/><path d="M 461 461v 9h 4.5a 4.5 4.5, 0, 0, 0, 0 -9" transform="rotate(90,465.5,465.5)"/></clipPath><clipPath id="clip-path-corners-square-color-0-0"><path clip-rule="evenodd" d="M 29 51.5v 18a 22.5 22.5, 0, 0, 0, 22.5 22.5h 18a 22.5 22.5, 0, 0, 0, 22.5 -22.5v -18a 22.5 22.5, 0, 0, 0, -22.5 -22.5h -18a 22.5 22.5, 0, 0, 0, -22.5 22.5M 51.5 38h 18a 13.5 13.5, 0, 0, 1, 13.5 13.5v 18a 13.5 13.5, 0, 0, 1, -13.5 13.5h -18a 13.5 13.5, 0, 0, 1, -13.5 -13.5v -18a 13.5 13.5, 0, 0, 1, 13.5 -13.5" transform="rotate(0,60.5,60.5)"/></clipPath><clipPath id="clip-path-corners-dot-color-0-0"><circle cx="60.5" cy="60.5" r="13.5" transform="rotate(0,60.5,60.5)"/></clipPath><clipPath id="clip-path-corners-square-color-1-0"><path clip-rule="evenodd" d="M 407 51.5v 18a 22.5 22.5, 0, 0, 0, 22.5 22.5h 18a 22.5 22.5, 0, 0, 0, 22.5 -22.5v -18a 22.5 22.5, 0, 0, 0, -22.5 -22.5h -18a 22.5 22.5, 0, 0, 0, -22.5 22.5M 429.5 38h 18a 13.5 13.5, 0, 0, 1, 13.5 13.5v 18a 13.5 13.5, 0, 0, 1, -13.5 13.5h -18a 13.5 13.5, 0, 0, 1, -13.5 -13.5v -18a 13.5 13.5, 0, 0, 1, 13.5 -13.5" transform="rotate(90,438.5,60.5)"/></clipPath><clipPath id="clip-path-corners-dot-color-1-0"><circle cx="438.5" cy="60.5" r="13.5" transform="rotate(90,438.5,60.5)"/></clipPath><clipPath id="clip-path-corners-square-color-0-1"><path clip-rule="evenodd" d="M 29 429.5v 18a 22.5 22.5, 0, 0, 0, 22.5 22.5h 18a 22.5 22.5, 0, 0, 0, 22.5 -22.5v -18a 22.5 22.5, 0, 0, 0, -22.5 -22.5h -18a 22.5 22.5, 0, 0, 0, -22.5 22.5M 51.5 416h 18a 13.5 13.5, 0, 0, 1, 13.5 13.5v 18a 13.5 13.5, 0, 0, 1, -13.5 13.5h -18a 13.5 13.5, 0, 0, 1, -13.5 -13.5v -18a 13.5 13.5, 0, 0, 1, 13.5 -13.5" transform="rotate(-90,60.5,438.5)"/></clipPath><clipPath id="clip-path-corners-dot-color-0-1"><circle cx="60.5" cy="438.5" r="13.5" transform="rotate(-90,60.5,438.5)"/></clipPath></defs><rect x="0" y="0" height="500" width="500" clip-path="url('#clip-path-background-color')" fill="#fff"/><rect x="0" y="0" height="500" width="500" clip-path="url('#clip-path-dot-color')" fill="#E83223"/><rect x="29" y="29" height="63" width="63" clip-path="url('#clip-path-corners-square-color-0-0')" fill="#E83223"/><rect x="47" y="47" height="27" width="27" clip-path="url('#clip-path-corners-dot-color-0-0')" fill="#E83223"/><rect x="407" y="29" height="63" width="63" clip-path="url('#clip-path-corners-square-color-1-0')" fill="#E83223"/><rect x="425" y="47" height="27" width="27" clip-path="url('#clip-path-corners-dot-color-1-0')" fill="#E83223"/><rect x="29" y="407" height="63" width="63" clip-path="url('#clip-path-corners-square-color-0-1')" fill="#E83223"/><rect x="47" y="425" height="27" width="27" clip-path="url('#clip-path-corners-dot-color-0-1')" fill="#E83223"/></svg>